<svg width="96" height="96" viewBox="0 0 96 96" fill="none" xmlns="http://www.w3.org/2000/svg">
<path d="M8 1.6001H75.2C79.6164 1.60557 83.1945 5.18369 83.2 9.6001V72.0001H94.4C95.2836 72.0001 96 72.7165 96 73.6001V76.8001C95.9945 81.2165 92.4164 84.7946 88 84.8001H38.3617V92.8001C38.3617 93.4063 38.0195 93.9603 37.4773 94.2313C36.9352 94.5024 36.2867 94.4438 35.8016 94.0798L30.3617 90.0001L24.9219 94.0798C24.6453 94.2884 24.3078 94.4009 23.9617 94.4001C23.7133 94.4024 23.468 94.3477 23.2445 94.2399C22.7 93.9673 22.3578 93.4087 22.3617 92.8001V84.8001H20.8C16.3836 84.7946 12.8055 81.2165 12.8 76.8001V14.4001H1.6C0.716408 14.4001 0 13.6837 0 12.8001V9.6001C0.00547028 5.18369 3.5836 1.60557 8 1.6001ZM38.3617 81.6001H88C90.6508 81.6001 92.8 79.4509 92.8 76.8001V75.2001H38.3617V81.6001ZM25.5617 89.6001L29.4016 86.7204C29.9703 86.2931 30.7523 86.2931 31.3219 86.7204L35.1617 89.6001V71.7298C34.8523 71.754 34.5414 71.7485 34.2336 71.7118C33.3102 72.9032 31.8875 73.6001 30.3805 73.6001C28.8734 73.6001 27.4516 72.9032 26.5281 71.7118C26.2094 71.7501 25.8875 71.7563 25.568 71.7298L25.5617 89.6001ZM23.5039 63.9681C23.9305 64.1196 24.2734 64.4454 24.4461 64.8634C24.6195 65.2821 24.6078 65.754 24.4125 66.1634C24.1102 66.7978 24.2383 67.554 24.7336 68.0524C25.2297 68.5509 25.9852 68.6837 26.6211 68.3845C27.0297 68.1892 27.5023 68.1767 27.9211 68.3493C28.3406 68.5228 28.6656 68.8657 28.818 69.2931C29.0516 69.9556 29.6781 70.3993 30.3805 70.3993C31.0836 70.3993 31.7102 69.9556 31.9437 69.2931C32.0953 68.8657 32.4211 68.5228 32.8398 68.3493C33.2594 68.1767 33.732 68.1892 34.1406 68.3845C34.7766 68.6837 35.532 68.5509 36.0273 68.0524C36.5234 67.554 36.6516 66.7978 36.3484 66.1634C36.1539 65.7548 36.1414 65.2821 36.3148 64.8642C36.4875 64.4454 36.8297 64.1204 37.2562 63.9681C37.9195 63.7321 38.3633 63.104 38.3633 62.4001C38.3633 61.6962 37.9195 61.0681 37.2562 60.8321C36.8297 60.6798 36.4883 60.3548 36.3156 59.9368C36.1422 59.5188 36.1547 59.047 36.3484 58.6384C36.6531 58.004 36.525 57.247 36.0289 56.7477C35.5336 56.2493 34.7773 56.1157 34.1406 56.4157C33.732 56.611 33.2594 56.6235 32.8398 56.4509C32.4211 56.2774 32.0953 55.9345 31.9437 55.5071C31.7102 54.8446 31.0836 54.4009 30.3805 54.4009C29.6781 54.4009 29.0516 54.8446 28.818 55.5071C28.6656 55.9345 28.3406 56.2774 27.9211 56.4509C27.5023 56.6235 27.0297 56.611 26.6211 56.4157C25.9852 56.1165 25.2297 56.2493 24.7336 56.7477C24.2383 57.2462 24.1102 58.0024 24.4125 58.6368C24.6078 59.0462 24.6195 59.5181 24.4461 59.9368C24.2734 60.3548 23.9305 60.6806 23.5039 60.8321C22.8422 61.0696 22.4 61.697 22.4 62.4001C22.4 63.1032 22.8422 63.7306 23.5039 63.9681ZM14.5234 5.0001C14.6141 5.12822 14.6945 5.26416 14.7773 5.39854C14.9484 5.67197 15.1016 5.95478 15.2383 6.24619C15.3102 6.40635 15.3773 6.554 15.4398 6.71025C15.5586 7.02432 15.6586 7.34463 15.7375 7.67041C15.7742 7.81963 15.8211 7.96338 15.8492 8.11494C15.9461 8.60478 15.9961 9.10166 16 9.6001V76.8001C16 79.4509 18.1492 81.6001 20.8 81.6001C21.3336 81.5899 21.8609 81.4907 22.3617 81.3056V70.1759C21.3664 69.129 20.8969 67.6892 21.0812 66.2563C19.8922 65.3306 19.1969 63.9071 19.1969 62.4001C19.1969 60.8931 19.8922 59.4696 21.0812 58.5438C20.8922 57.0501 21.4039 55.5524 22.4672 54.4853C23.5305 53.4188 25.0266 52.9032 26.5219 53.0884C27.4453 51.897 28.8672 51.2001 30.3742 51.2001C31.8812 51.2001 33.3039 51.897 34.2273 53.0884C35.7219 52.904 37.218 53.4196 38.2812 54.486C39.3438 55.5524 39.8555 57.0501 39.6672 58.5438C40.8563 59.4696 41.5523 60.8931 41.5523 62.4001C41.5523 63.9071 40.8563 65.3306 39.6672 66.2563C39.8563 67.7095 39.3719 69.1696 38.3523 70.2227V72.0001H80V9.6001C80 6.94932 77.8508 4.8001 75.2 4.8001H14.4C14.4445 4.8626 14.4781 4.93447 14.5234 5.0001ZM3.2 11.2001H12.8V9.6001C12.8 6.94932 10.6508 4.8001 8 4.8001C5.34922 4.8001 3.2 6.94932 3.2 9.6001V11.2001Z" fill="#1CAAE6"/>
<path d="M43.2 14.3999H36.8V17.5999H43.2V14.3999Z" fill="#1CAAE6"/>
<path d="M59.2 14.3999H46.4V17.5999H59.2V14.3999Z" fill="#1CAAE6"/>
<path d="M64 22.3999H32V25.5999H64V22.3999Z" fill="#1CAAE6"/>
<path d="M72 32H64V35.2H72V32Z" fill="#1CAAE6"/>
<path d="M72 40H54.4V43.2H72V40Z" fill="#1CAAE6"/>
<path d="M60.8 32H24V35.2H60.8V32Z" fill="#1CAAE6"/>
<path d="M51.2 40H24V43.2H51.2V40Z" fill="#1CAAE6"/>
<path d="M72 48H40V51.2H72V48Z" fill="#1CAAE6"/>
<path d="M72 56H44.8V59.2H72V56Z" fill="#1CAAE6"/>
</svg>
