<svg width="96" height="96" viewBox="0 0 96 96" fill="none" xmlns="http://www.w3.org/2000/svg">
<path d="M96 40.2581H92.5207L87.3349 42.9866C86.7513 42.6646 86.1441 42.3916 85.4894 42.2276L78.9662 40.5953V39.8536C81.8521 37.8395 83.6129 34.5121 83.6129 30.9677V28.2611C83.6129 22.246 78.8997 17.2122 73.1068 17.0368C72.8128 17.0292 72.5232 17.0398 72.2321 17.0542L73.9234 13.0948L65.724 4.89768L60.8906 8.0436C59.0542 7.00932 57.1119 6.20413 55.0948 5.63936L53.901 0H42.1006L40.9068 5.64088C38.8896 6.20565 36.9458 7.01084 35.1109 8.04511L30.2775 4.89919L22.0849 13.0917L23.7475 17.0542C23.684 17.0512 23.6235 17.0398 23.56 17.0383C20.5948 16.9521 17.8019 18.034 15.6804 20.0935C13.5559 22.1515 12.3871 24.9133 12.3871 27.871V30.9677C12.3871 34.5121 14.1464 37.838 17.0323 39.8521V40.5953L12.7772 41.659L5.06477 37.1613H0V69.2457L15.2329 74.3226H18.1996L18.5701 73.0252L23.2394 75.8279C23.3158 78.3667 25.3518 80.4095 27.8884 80.4987C27.9776 83.0247 30.0076 85.0547 32.5335 85.1439C32.6227 87.6699 34.6527 89.6998 37.1787 89.7891C37.2709 92.374 39.3879 94.4516 41.9939 94.4516C42.9617 94.4516 43.9105 94.1499 44.7082 93.6124L46.0796 94.8236C46.9393 95.5804 48.0461 96 49.1953 96H49.4819C52.0585 96 54.155 93.9171 54.1875 91.3488C56.7361 91.3163 58.8001 89.2523 58.8327 86.7036C61.3828 86.6711 63.4483 84.6041 63.4778 82.0539C66.0514 81.9934 68.129 79.8909 68.129 77.3029C68.129 77.1472 68.1215 76.9937 68.1056 76.8387L96 62.8926V40.2581ZM80.5161 28.2611V30.9677C80.5161 33.716 79.0312 36.2835 76.6406 37.6678L75.8664 38.1154L75.8725 43.0154L83.6084 44.9478L66.5806 53.91V49.7389C66.5806 47.6575 65.7399 45.7515 64.3632 44.343L69.6774 43.0154V38.1116L68.9047 37.6648C66.5156 36.2835 65.0323 33.716 65.0323 30.9677V27.871C65.0323 25.7593 65.8669 23.7845 67.3843 22.314C68.9002 20.8443 70.9113 20.0519 73.0139 20.1336C77.1502 20.2576 80.5161 23.904 80.5161 28.2611ZM50.3347 52.6928L43.3254 50.4526C40.131 49.4289 36.6736 49.2762 33.4037 50.0005L32.5161 50.1971V49.7389C32.5161 47.6038 33.964 45.75 36.034 45.2313L44.9032 43.0154V38.1116L44.1305 37.6648C41.7414 36.2835 40.2581 33.716 40.2581 30.9677V27.871C40.2581 25.7593 41.0927 23.7845 42.6101 22.314C44.126 20.8443 46.1499 20.0519 48.2397 20.1336C52.376 20.2576 55.7419 23.904 55.7419 28.2611V30.9677C55.7419 33.716 54.2571 36.2835 51.8664 37.6678L51.0922 38.1154L51.0983 43.0154L59.966 45.2313C62.036 45.75 63.4839 47.6038 63.4839 49.7389V55.5408L63.1013 55.7419H62.1525L52.6331 53.0217C51.8831 52.8092 51.1104 52.7223 50.3347 52.6928ZM32.8632 23.1744C35.7709 17.5403 41.6235 13.9355 48 13.9355C54.316 13.9355 60.1436 17.4919 63.0733 23.0496C62.3362 24.5277 61.9355 26.1646 61.9355 27.871V30.9677C61.9355 34.5121 63.6948 37.838 66.5806 39.8521V40.5953L60.3871 42.1459L54.192 40.5953V39.8536C57.0779 37.8395 58.8387 34.5121 58.8387 30.9677V28.2611C58.8387 22.246 54.1255 17.2122 48.3327 17.0368C45.3689 16.9498 42.5746 18.0325 40.4531 20.092C38.3301 22.1515 37.1613 24.9133 37.1613 27.871V30.9677C37.1613 34.5121 38.9206 37.838 41.8064 39.8521V40.5953L35.6129 42.1459L29.4178 40.5953V39.8536C32.3037 37.8395 34.0645 34.5121 34.0645 30.9677V28.2611C34.0645 26.439 33.626 24.7092 32.8632 23.1744ZM25.7419 13.81L30.6888 8.86316L35.0428 11.6968L35.876 11.1857C37.9635 9.9065 40.2195 8.96976 42.5806 8.40499L43.5333 8.17666L44.6106 3.09677H51.3909L52.4652 8.17515L53.4178 8.40272C55.779 8.96825 58.035 9.90499 60.1225 11.1842L60.9556 11.6953L65.3097 8.86164L70.2505 13.8039L68.4942 17.9161C67.2989 18.4302 66.1905 19.1537 65.2258 20.089C65.1623 20.151 65.1079 20.2175 65.0459 20.281C61.3979 14.4821 54.9488 10.8387 48 10.8387C41.0013 10.8387 34.534 14.5161 30.8952 20.374C29.9214 19.3548 28.7631 18.5292 27.4793 17.9524L25.7419 13.81ZM20.129 43.0154V38.1116L19.3563 37.6648C16.9672 36.2835 15.4839 33.716 15.4839 30.9677V27.871C15.4839 25.7593 16.3185 23.7845 17.8359 22.314C19.3518 20.8443 21.3674 20.0519 23.4655 20.1336C27.6018 20.2576 30.9677 23.904 30.9677 28.2611V30.9677C30.9677 33.716 29.4829 36.2835 27.0922 37.6678L26.318 38.1154L26.3241 43.0154L31.6368 44.343C30.2601 45.7515 29.4194 47.6575 29.4194 49.7389V50.8858L24.5897 51.9594L24.7152 51.5209L24.7742 48.6593L16.6081 43.8954L20.129 43.0154ZM3.09677 40.2581H4.22555L15.3614 46.7533L9.74244 69.2283L3.09677 67.0123V40.2581ZM15.7349 71.2258L12.6872 70.2104L18.1459 48.378L21.6774 50.4375V50.8798L15.8649 71.2258H15.7349ZM26.3226 75.6835C26.3226 75.2268 26.5071 74.7792 26.8306 74.4556L29.5524 71.7339C29.876 71.4103 30.3236 71.2258 30.7802 71.2258C31.7374 71.2258 32.5161 72.0045 32.5161 72.9617C32.5161 73.4183 32.3317 73.8659 32.0081 74.1895L29.2863 76.9113C28.9627 77.2349 28.5151 77.4193 28.0585 77.4193C27.1013 77.4193 26.3226 76.6406 26.3226 75.6835ZM30.9677 80.3286C30.9677 79.872 31.1522 79.4244 31.4758 79.1008L34.1976 76.379C34.5212 76.0554 34.9688 75.871 35.4254 75.871C36.3826 75.871 37.1613 76.6497 37.1613 77.6068C37.1613 78.0635 36.9768 78.5111 36.6532 78.8347L33.9314 81.5564C33.6079 81.88 33.1603 82.0645 32.7036 82.0645C31.7465 82.0645 30.9677 81.2858 30.9677 80.3286ZM35.6129 84.9738C35.6129 84.5171 35.7974 84.0696 36.121 83.746L38.8427 81.0242C39.1663 80.7006 39.6139 80.5161 40.0706 80.5161C41.0277 80.5161 41.8064 81.2949 41.8064 82.252C41.8064 82.7087 41.622 83.1562 41.2984 83.4798L38.5766 86.2016C38.253 86.5252 37.8054 86.7097 37.3488 86.7097C36.3916 86.7097 35.6129 85.9309 35.6129 84.9738ZM41.9939 91.3548C41.0368 91.3548 40.2581 90.5761 40.2581 89.6189C40.2581 89.1623 40.4425 88.7147 40.7661 88.3911L43.4879 85.6693C43.8115 85.3458 44.2591 85.1613 44.7157 85.1613C45.6729 85.1613 46.4516 85.94 46.4516 86.8972C46.4516 87.3538 46.2671 87.8014 45.9435 88.125L43.2218 90.8468C42.8982 91.1704 42.4506 91.3548 41.9939 91.3548ZM49.4819 92.9032H49.1953C48.8007 92.9032 48.4226 92.7596 48.1285 92.4987L46.9703 91.4773L48.1331 90.3145C48.5481 89.8994 48.8702 89.4057 49.1084 88.8758L50.5161 90.0476C50.8843 90.3546 51.0968 90.8067 51.0968 91.2883C51.0968 92.1789 50.3725 92.9032 49.4819 92.9032ZM63.3674 78.9677H63.0998C62.7112 78.9677 62.3316 78.8301 62.0345 78.5806L53.6379 71.5834L51.654 73.9635L59.808 80.7573C60.1746 81.0643 60.3871 81.5164 60.3871 81.998C60.3871 82.8886 59.6628 83.6129 58.7722 83.6129H58.4342C58.0585 83.6129 57.691 83.4798 57.4015 83.2379L48.9912 76.2301L47.0073 78.6101L55.1613 85.4047C55.5295 85.7094 55.7419 86.1615 55.7419 86.6431C55.7419 87.5338 55.0176 88.2581 54.127 88.2581C53.5328 88.2581 52.9536 88.0471 52.4977 87.6683L49.0418 84.7878C48.2805 83.2318 46.7162 82.1469 44.8843 82.0819C44.7951 79.5559 42.7651 77.526 40.2392 77.4367C40.1499 74.9108 38.12 72.8808 35.594 72.7916C35.5033 70.2066 33.3863 68.129 30.7802 68.129C29.5078 68.129 28.2626 68.6447 27.3629 69.5443L24.6411 72.2661C24.4786 72.4287 24.344 72.6132 24.2072 72.7961L19.4509 69.942L23.6205 55.3488L34.0736 53.0247C36.8158 52.4115 39.7069 52.5446 42.381 53.4005L44.662 54.13L36.9292 57.9965C35.1623 58.8818 34.0645 60.6593 34.0645 62.6356V62.9418C34.0645 65.8019 36.3916 68.129 39.2518 68.129C40.1915 68.129 41.1162 67.8735 41.9199 67.3889L47.6855 63.9314C48.8438 63.2374 50.3982 63.3894 51.3984 64.2891L64.4811 76.063C64.8311 76.3805 65.0323 76.8311 65.0323 77.3029C65.0323 78.2215 64.286 78.9677 63.3674 78.9677ZM92.9032 60.9783L66.8173 74.0224C66.7326 73.9325 66.6441 73.847 66.5512 73.7639L53.4708 61.9899C52.3246 60.9556 50.8427 60.3871 49.2989 60.3871C48.1701 60.3871 47.0617 60.694 46.091 61.2762L40.3231 64.7351C39.9995 64.9302 39.6298 65.0323 39.2518 65.0323C38.098 65.0323 37.1613 64.0955 37.1613 62.9418V62.6356C37.1613 61.838 37.6043 61.1227 38.3165 60.7666L46.9536 56.4481C48.4317 55.7079 50.1865 55.5423 51.7795 56.0005L61.5098 58.7797L63.8664 58.8387L92.9032 43.5559V60.9783Z" fill="#1CAAE6"/>
</svg>
