<svg width="95" height="95" viewBox="0 0 95 95" fill="none" xmlns="http://www.w3.org/2000/svg">
<path d="M89.1836 54.2261V54.3145L89.2392 54.3833C92.6837 58.643 94.75 64.0601 94.75 69.9512C94.75 83.6247 83.6247 94.75 69.9512 94.75C61.372 94.75 53.7965 90.3699 49.3413 83.7279L49.267 83.6172H49.1337H2.7832C1.38399 83.6172 0.25 82.4832 0.25 81.084V8.53516C0.25 7.13594 1.38399 6.00195 2.7832 6.00195H16.8848H17.1348V5.75195V2.7832C17.1348 1.38399 18.2688 0.25 19.668 0.25C21.0672 0.25 22.2012 1.38399 22.2012 2.7832V5.75195V6.00195H22.4512H33.584H33.834V5.75195V2.7832C33.834 1.38399 34.968 0.25 36.3672 0.25C37.7664 0.25 38.9004 1.38399 38.9004 2.7832V5.75195V6.00195H39.1504H50.2832H50.5332V5.75195V2.7832C50.5332 1.38399 51.6672 0.25 53.0664 0.25C54.4656 0.25 55.5996 1.38399 55.5996 2.7832V5.75195V6.00195H55.8496H66.9824H67.2324V5.75195V2.7832C67.2324 1.38399 68.3664 0.25 69.7656 0.25C71.1648 0.25 72.2988 1.38399 72.2988 2.7832V5.75195V6.00195H72.5488H86.6504C88.0496 6.00195 89.1836 7.13594 89.1836 8.53516V54.2261ZM17.1348 11.3184V11.0684H16.8848H5.56641H5.31641V11.3184V22.4512V22.7012H5.56641H83.8672H84.1172V22.4512V11.3184V11.0684H83.8672H72.5488H72.2988V11.3184V14.1016C72.2988 15.5008 71.1648 16.6348 69.7656 16.6348C68.3664 16.6348 67.2324 15.5008 67.2324 14.1016V11.3184V11.0684H66.9824H55.8496H55.5996V11.3184V14.1016C55.5996 15.5008 54.4656 16.6348 53.0664 16.6348C51.6672 16.6348 50.5332 15.5008 50.5332 14.1016V11.3184V11.0684H50.2832H39.1504H38.9004V11.3184V14.1016C38.9004 15.5008 37.7664 16.6348 36.3672 16.6348C34.968 16.6348 33.834 15.5008 33.834 14.1016V11.3184V11.0684H33.584H22.4512H22.2012V11.3184V14.1016C22.2012 15.5008 21.0672 16.6348 19.668 16.6348C18.2688 16.6348 17.1348 15.5008 17.1348 14.1016V11.3184ZM5.31641 78.3008V78.5508H5.56641H46.3353H46.6893L46.5709 78.2172C45.9481 76.4622 45.5183 74.6169 45.3067 72.7068L45.282 72.4844H45.0582H42.1191C40.7199 72.4844 39.5859 71.3504 39.5859 69.9512C39.5859 68.552 40.7199 67.418 42.1191 67.418H45.0582H45.282L45.3067 67.1955C45.5183 65.2855 45.9488 63.4401 46.5709 61.6851L46.6891 61.3516H46.3353H42.1191C40.7199 61.3516 39.5859 60.2176 39.5859 58.8184C39.5859 57.4191 40.7199 56.2852 42.1191 56.2852H47.6855C48.0953 56.2852 48.4809 56.3845 48.8239 56.5577L49.024 56.6587L49.1461 56.4708C53.5727 49.663 61.245 45.1523 69.9512 45.1523C75.0452 45.1523 79.785 46.6971 83.7279 49.3413L84.1172 49.6023V49.1337V28.0176V27.7676H83.8672H5.56641H5.31641V28.0176V78.3008ZM50.2188 69.9512C50.2188 80.8321 59.0702 89.6836 69.9512 89.6836C80.8321 89.6836 89.6836 80.8321 89.6836 69.9512C89.6836 59.0702 80.8321 50.2188 69.9512 50.2188C59.0702 50.2188 50.2188 59.0702 50.2188 69.9512Z" fill="#1CAAE6" stroke="white" stroke-width="0.5"/>
<path d="M72.4844 67.168V67.418H72.7344H81.084C82.4832 67.418 83.6172 68.552 83.6172 69.9512C83.6172 71.3504 82.4832 72.4844 81.084 72.4844H69.9512C68.552 72.4844 67.418 71.3504 67.418 69.9512V58.8184C67.418 57.4191 68.552 56.2852 69.9512 56.2852C71.3504 56.2852 72.4844 57.4191 72.4844 58.8184V67.168Z" fill="#1CAAE6" stroke="white" stroke-width="0.5"/>
<path d="M19.668 34.0195H25.2344C26.6336 34.0195 27.7676 35.1535 27.7676 36.5527C27.7676 37.9519 26.6336 39.0859 25.2344 39.0859H19.668C18.2688 39.0859 17.1348 37.9519 17.1348 36.5527C17.1348 35.1535 18.2688 34.0195 19.668 34.0195Z" fill="#1CAAE6" stroke="white" stroke-width="0.5"/>
<path d="M19.668 45.1523H25.2344C26.6336 45.1523 27.7676 46.2863 27.7676 47.6855C27.7676 49.0848 26.6336 50.2188 25.2344 50.2188H19.668C18.2688 50.2188 17.1348 49.0848 17.1348 47.6855C17.1348 46.2863 18.2688 45.1523 19.668 45.1523Z" fill="#1CAAE6" stroke="white" stroke-width="0.5"/>
<path d="M19.668 56.2852H25.2344C26.6336 56.2852 27.7676 57.4191 27.7676 58.8184C27.7676 60.2176 26.6336 61.3516 25.2344 61.3516H19.668C18.2688 61.3516 17.1348 60.2176 17.1348 58.8184C17.1348 57.4191 18.2688 56.2852 19.668 56.2852Z" fill="#1CAAE6" stroke="white" stroke-width="0.5"/>
<path d="M47.6855 39.0859H42.1191C40.7199 39.0859 39.5859 37.9519 39.5859 36.5527C39.5859 35.1535 40.7199 34.0195 42.1191 34.0195H47.6855C49.0848 34.0195 50.2188 35.1535 50.2188 36.5527C50.2188 37.9519 49.0848 39.0859 47.6855 39.0859Z" fill="#1CAAE6" stroke="white" stroke-width="0.5"/>
<path d="M47.6855 50.2188H42.1191C40.7199 50.2188 39.5859 49.0848 39.5859 47.6855C39.5859 46.2863 40.7199 45.1523 42.1191 45.1523H47.6855C49.0848 45.1523 50.2188 46.2863 50.2188 47.6855C50.2188 49.0848 49.0848 50.2188 47.6855 50.2188Z" fill="#1CAAE6" stroke="white" stroke-width="0.5"/>
<path d="M19.668 67.418H25.2344C26.6336 67.418 27.7676 68.552 27.7676 69.9512C27.7676 71.3504 26.6336 72.4844 25.2344 72.4844H19.668C18.2688 72.4844 17.1348 71.3504 17.1348 69.9512C17.1348 68.552 18.2688 67.418 19.668 67.418Z" fill="#1CAAE6" stroke="white" stroke-width="0.5"/>
<path d="M69.9512 39.0859H64.3848C62.9856 39.0859 61.8516 37.9519 61.8516 36.5527C61.8516 35.1535 62.9856 34.0195 64.3848 34.0195H69.9512C71.3504 34.0195 72.4844 35.1535 72.4844 36.5527C72.4844 37.9519 71.3504 39.0859 69.9512 39.0859Z" fill="#1CAAE6" stroke="white" stroke-width="0.5"/>
</svg>
