<svg width="93" height="93" viewBox="0 0 93 93" fill="none" xmlns="http://www.w3.org/2000/svg">
<g clip-path="url(#clip0)">
<path d="M27.5464 40.3485L27.543 40.4077C27.3139 44.4211 29.562 48.1808 33.2718 49.9833L33.3098 50.0019C34.6178 50.6275 35.6898 51.6589 36.3661 52.9415L36.3814 52.9694C38.2506 56.5287 42.1169 58.6863 46.2385 58.4699L46.301 58.4665C47.7958 58.3828 49.2795 58.7683 50.5443 59.5698C54.0343 61.7528 58.4645 61.7528 61.9545 59.5698C63.2193 58.7683 64.7031 58.3828 66.1978 58.4665L66.2604 58.4699C70.3752 58.688 74.2465 56.5287 76.12 52.9635L76.1293 52.944C76.8082 51.6581 77.8828 50.625 79.1949 49.9985L79.2253 49.9833C82.9352 48.1799 85.1841 44.4211 84.9541 40.4069L84.9507 40.3511C84.8746 38.9375 85.2669 37.5383 86.0684 36.3707C88.3756 33.0058 88.3756 28.5689 86.0692 25.2031C85.2686 24.0364 84.8746 22.6381 84.9507 21.2245L84.9541 21.1653C85.1841 17.1511 82.9352 13.3922 79.222 11.588L79.1881 11.5711C77.8828 10.9472 76.8133 9.92081 76.1361 8.64165L76.1166 8.6036C74.2465 5.04426 70.3752 2.88752 66.2604 3.10311L66.197 3.10649C64.7031 3.19019 63.2193 2.80466 61.9553 2.00318H61.9537C58.4636 -0.179771 54.0335 -0.179771 50.5435 2.00318C49.2787 2.80382 47.7949 3.18934 46.3002 3.10564L46.2376 3.10226C42.122 2.88414 38.2515 5.04341 36.3822 8.60191L36.3678 8.62812C35.6906 9.9132 34.6178 10.9455 33.3082 11.572L33.2726 11.5889C29.5628 13.3914 27.3139 17.1511 27.5439 21.1653L27.5473 21.2211C27.6234 22.6347 27.2311 24.0339 26.4296 25.2006C24.1224 28.5663 24.1224 33.0041 26.4296 36.369C27.2302 37.5357 27.6234 38.9349 27.5464 40.3485ZM29.2796 27.1671C30.5165 25.3663 31.1227 23.207 31.0043 21.0258L31.0009 20.9666C30.8792 18.3068 32.3722 15.8364 34.7826 14.7061L34.8122 14.6917C36.7897 13.7448 38.4087 12.1858 39.4301 10.2463L39.447 10.2142C40.6889 7.84861 43.2904 6.41473 46.0533 6.56184L46.1142 6.56438C48.325 6.68866 50.519 6.11883 52.3891 4.93351C54.7504 3.45651 57.7467 3.45651 60.108 4.93351C61.9782 6.11713 64.1721 6.68781 66.3821 6.56522L66.443 6.56184C69.2194 6.41642 71.8082 7.84861 73.0468 10.2074L73.0696 10.2505C74.0909 12.1875 75.7083 13.7439 77.6832 14.69L77.712 14.7044C80.1604 15.8948 81.6467 18.3525 81.4971 20.9674L81.4937 21.0292C81.3753 23.2104 81.9823 25.3689 83.2192 27.1697C84.714 29.3501 84.7131 32.2246 83.2175 34.4042C81.9815 36.2058 81.3753 38.3651 81.4937 40.5464L81.4971 40.6047C81.6467 43.2197 80.1604 45.6782 77.7111 46.8695L77.6858 46.8813C75.7066 47.8299 74.0859 49.3906 73.0637 51.3334L73.051 51.3588C71.8082 53.7244 69.211 55.1591 66.4438 55.0112L66.3838 55.0078C64.173 54.8843 61.9782 55.455 60.1072 56.6395C57.7467 58.1156 54.7504 58.1156 52.3899 56.6395C50.6889 55.5615 48.7156 54.99 46.7018 54.9917C46.5065 54.9917 46.3103 54.9968 46.1142 55.0078L46.0533 55.0103C43.3267 55.1836 40.7473 53.7565 39.4444 51.3546L39.4267 51.3216C38.4071 49.3855 36.7906 47.8299 34.8164 46.8838L34.7843 46.8678C32.335 45.6774 30.8487 43.2188 30.9992 40.6047L31.0026 40.543C31.1201 38.3617 30.5131 36.2024 29.2771 34.4025C27.7831 32.2221 27.784 29.3475 29.2796 27.1688V27.1671Z" fill="#1CAAE6"/>
<path d="M92.7754 68.1748C90.4825 64.1056 85.398 62.5559 81.2257 64.6543L67.6621 71.0628C65.7895 67.5804 62.1972 65.3636 58.2438 65.252L45.7227 64.9071C43.7402 64.8504 41.7948 64.3474 40.032 63.4377L38.7579 62.7774C32.2344 59.377 24.4588 59.3855 17.9421 62.7994L18.0216 59.913C18.0478 58.9568 17.2945 58.1604 16.3383 58.1342L2.60821 57.7563C1.65201 57.7301 0.856441 58.4834 0.830233 59.4396L0.000846785 89.5705C-0.0253622 90.5267 0.727933 91.3232 1.68414 91.3494L15.4142 91.7273H15.4624C16.4 91.7264 17.1668 90.9799 17.1931 90.0431L17.2319 88.6017L20.7989 86.6918C22.199 85.9385 23.8366 85.7593 25.366 86.1921L46.6654 92.1703C46.7026 92.1813 46.7398 92.1897 46.7779 92.1982C48.3174 92.5203 49.8866 92.6818 51.46 92.6809C54.791 92.6826 58.0832 91.9648 61.1108 90.5749C61.1852 90.5411 61.257 90.5022 61.3255 90.4583L92.2081 70.4811C92.9783 69.984 93.2268 68.972 92.7754 68.1748ZM3.51031 87.9346L4.24416 61.2666L14.513 61.549L13.7783 88.2178L3.51031 87.9346ZM59.5501 87.4806C55.7887 89.1782 51.5876 89.6466 47.5447 88.8198L26.3019 82.8585C23.9118 82.1822 21.3518 82.4628 19.1646 83.6389L17.3419 84.6145L17.8305 66.8829C23.6058 63.0412 31.0136 62.6464 37.1651 65.8515L38.4392 66.5118C40.6661 67.6616 43.123 68.2965 45.6281 68.3684L58.1492 68.7133C61.6662 68.8139 64.6532 71.3181 65.3668 74.7642L46.7161 74.251C45.7599 74.2248 44.9644 74.9781 44.9382 75.9343C44.912 76.8905 45.6652 77.6869 46.6215 77.7131L67.2039 78.2796H67.2529C68.1897 78.2787 68.9565 77.5322 68.9827 76.5954C69.0039 75.843 68.9472 75.0897 68.8153 74.3491L82.7247 67.7757L82.7653 67.7563C84.7385 66.7569 87.1252 67.0909 88.7477 68.5932L59.5501 87.4806Z" fill="#1CAAE6"/>
<path d="M42.74 27.44H45.4C45.7067 25.8133 46.1933 24.3467 46.86 23.04C47.5267 21.72 48.34 20.6 49.3 19.68C50.26 18.76 51.3467 18.0533 52.56 17.56C53.7733 17.0533 55.0933 16.8 56.52 16.8C58.3733 16.8 59.96 17.16 61.28 17.88C62.6 18.5867 63.7067 19.5467 64.6 20.76L62.86 22.64C62.7267 22.7867 62.5867 22.92 62.44 23.04C62.2933 23.1467 62.0867 23.2 61.82 23.2C61.6333 23.2 61.46 23.1467 61.3 23.04C61.1533 22.9333 60.9867 22.8 60.8 22.64C60.6133 22.48 60.4067 22.3067 60.18 22.12C59.9533 21.9333 59.68 21.76 59.36 21.6C59.0533 21.44 58.6867 21.3067 58.26 21.2C57.8333 21.0933 57.3267 21.04 56.74 21.04C55.1667 21.04 53.84 21.58 52.76 22.66C51.68 23.74 50.9267 25.3333 50.5 27.44H60.54V28.96C60.54 29.2667 60.4133 29.5533 60.16 29.82C59.92 30.0733 59.5867 30.2 59.16 30.2H50.16C50.1467 30.4267 50.14 30.6533 50.14 30.88C50.14 31.0933 50.14 31.3133 50.14 31.54C50.14 31.7 50.14 31.86 50.14 32.02C50.14 32.18 50.1467 32.3333 50.16 32.48H58.64V33.98C58.64 34.2867 58.5133 34.5733 58.26 34.84C58.02 35.0933 57.6933 35.22 57.28 35.22H50.4C50.7733 37.5133 51.4867 39.2267 52.54 40.36C53.6067 41.48 54.9267 42.04 56.5 42.04C57.46 42.04 58.2267 41.9133 58.8 41.66C59.3867 41.3933 59.86 41.1 60.22 40.78C60.5933 40.46 60.9 40.1733 61.14 39.92C61.3933 39.6533 61.6667 39.52 61.96 39.52C62.1067 39.52 62.2333 39.5467 62.34 39.6C62.46 39.64 62.5733 39.7267 62.68 39.86L64.82 41.82C63.8867 43.26 62.7 44.3667 61.26 45.14C59.82 45.9 58.1467 46.28 56.24 46.28C54.68 46.28 53.2733 46.02 52.02 45.5C50.78 44.9667 49.7 44.22 48.78 43.26C47.86 42.3 47.1067 41.14 46.52 39.78C45.9333 38.42 45.52 36.9 45.28 35.22H42.74V32.48H45.06C45.0467 32.3333 45.04 32.18 45.04 32.02C45.04 31.86 45.04 31.7 45.04 31.54C45.04 31.3133 45.04 31.0933 45.04 30.88C45.04 30.6533 45.0467 30.4267 45.06 30.2H42.74V27.44Z" fill="#1CAAE6"/>
</g>
<defs>
<clipPath id="clip0">
<rect width="93" height="93" fill="white"/>
</clipPath>
</defs>
</svg>
