<svg width="80" height="80" viewBox="0 0 80 80" fill="none" xmlns="http://www.w3.org/2000/svg">
<path d="M77.6562 0H2.34375C1.04919 0 0 1.04919 0 2.34375V77.6562C0 78.9508 1.04919 80 2.34375 80H11.7188C13.0133 80 14.0625 78.9508 14.0625 77.6562V42.3438H65.9375V77.6562C65.9375 78.9508 66.9867 80 68.2812 80H77.6562C78.9508 80 80 78.9508 80 77.6562C80 74.6295 80 5.39124 80 2.34375C80 1.04919 78.9508 0 77.6562 0ZM4.6875 4.6875H75.3125V9.375H4.6875V4.6875ZM14.0625 23.5938H65.9375V28.2812H14.0625V23.5938ZM65.9375 18.9062H14.0625V14.0625H65.9375V18.9062ZM9.375 75.3125H4.6875V14.0625H9.375V75.3125ZM14.0625 37.6562V32.9688H65.9375V37.6562H14.0625ZM70.625 75.3125V14.0625H75.3125V75.3125H70.625Z" fill="#1CAAE6"/>
<path d="M44.6875 47.1875H35.3125C31.4355 47.1875 28.2812 50.3418 28.2812 54.2188V72.9688C28.2812 76.8457 31.4355 80 35.3125 80H44.6875C48.5645 80 51.7188 76.8457 51.7188 72.9688V54.2188C51.7188 50.3418 48.5645 47.1875 44.6875 47.1875ZM47.0312 72.9688C47.0312 74.2609 45.9796 75.3125 44.6875 75.3125H35.3125C34.0204 75.3125 32.9688 74.2609 32.9688 72.9688V54.2188C32.9688 52.9266 34.0204 51.875 35.3125 51.875H44.6875C45.9796 51.875 47.0312 52.9266 47.0312 54.2188V72.9688Z" fill="#1CAAE6"/>
<path d="M41.6571 54.9054C40.7422 53.9899 39.2578 53.9899 38.3429 54.9054L35.9991 57.2491C35.0836 58.1647 35.0836 59.6484 35.9991 60.5634C36.9141 61.4789 38.3978 61.4789 39.3134 60.5634L40 59.8773L40.6866 60.5634C41.6016 61.4789 43.0859 61.4789 44.0009 60.5634C44.9164 59.6484 44.9164 58.1647 44.0009 57.2491L41.6571 54.9054Z" fill="black"/>
<path d="M40.6866 66.6241L40 67.3102L39.3134 66.6241C38.3984 65.7086 36.9141 65.7086 35.9991 66.6241C35.0836 67.5397 35.0836 69.0234 35.9991 69.9384L38.3429 72.2821C38.8 72.7399 39.4 72.9688 40 72.9688C40.6 72.9688 41.2 72.7399 41.6571 72.2821L44.0009 69.9384C44.9164 69.0228 44.9164 67.5391 44.0009 66.6241C43.0859 65.7086 41.6016 65.7086 40.6866 66.6241Z" fill="black"/>
</svg>
