<svg width="80" height="80" viewBox="0 0 80 80" fill="none" xmlns="http://www.w3.org/2000/svg">
<path d="M79.9944 40.0851C79.9954 40.066 79.9961 40.0465 79.9968 40.0275C80.0502 38.3128 78.7088 36.8768 76.9946 36.8135C76.2115 36.7848 57.7001 36.2295 46.8824 47.0446C42.7509 51.1753 40.6712 55.6596 40.7009 60.3737C40.721 63.5213 41.681 66.0949 42.516 67.8837C40.7262 70.131 39.0309 72.5251 37.4357 75.0651C36.5198 76.5238 36.9596 78.4488 38.4184 79.3651C38.9337 79.6887 39.5073 79.843 40.0741 79.843C41.1113 79.843 42.1259 79.3259 42.7184 78.3824C48.4643 69.2331 55.2602 62.4295 63.4941 57.5828C64.9785 56.709 65.4736 54.7973 64.5999 53.3129C63.7258 51.8285 61.8144 51.3335 60.3299 52.2071C55.589 54.9978 51.2062 58.4565 47.2123 62.5507C47.0505 61.8601 46.9435 61.1163 46.9385 60.334C46.9193 57.3081 48.3435 54.404 51.2926 51.4557C57.8282 44.9217 68.4619 43.4479 73.6796 43.1271C73.3679 48.3353 71.9068 58.9476 65.3432 65.5095C62.9576 67.8946 60.523 69.314 58.1069 69.7285C56.4091 70.0196 55.2691 71.632 55.5602 73.3296C55.8207 74.849 57.1391 75.9216 58.6304 75.9216C58.8054 75.9216 58.9829 75.9066 59.1612 75.8762C62.8736 75.2395 66.4372 73.2357 69.7532 69.9207C79.9972 59.6793 80.0429 42.539 79.9944 40.0851Z" fill="black"/>
<path d="M32.0573 55.4807C30.2008 55.6136 28.3784 55.7951 26.6051 56.0217C25.5729 52.0234 24.9169 47.6081 24.7105 43.04H39.7653C41.3373 43.04 42.634 41.8758 42.8492 40.3631C42.9703 40.0301 43.0401 39.6723 43.0401 39.2975V24.4392C46.5403 24.3411 49.9575 24.0794 53.2073 23.6667C53.8568 26.1329 54.3668 28.7828 54.7053 31.5653C54.9132 33.2751 56.4679 34.4931 58.1781 34.2847C59.8879 34.0767 61.1053 32.5217 60.8975 30.812C60.5542 27.9914 60.0459 25.2551 59.3906 22.6573C62.3664 22.0555 65.1212 21.3134 67.5728 20.4447C69.4174 23.0481 70.9126 25.9428 71.9768 29.0736C72.4181 30.3719 73.6304 31.1894 74.9295 31.1894C75.2624 31.1894 75.6009 31.1358 75.9335 31.0225C77.5643 30.4681 78.437 28.6965 77.8824 27.0658C72.3789 10.8769 57.1861 0 40.0772 0C40.0622 0 40.0478 0.00203125 40.0331 0.0021875C39.9958 0.001875 39.9586 0 39.9212 0C29.2579 0 19.2328 4.1525 11.6926 11.6925C4.15265 19.2328 0 29.2578 0 39.9211C0 48.4893 2.67453 56.6571 7.73484 63.5417C12.6914 70.2854 19.493 75.2295 27.4042 77.8396C27.6994 77.9371 28.0389 77.9959 28.3986 77.9959C29.3089 77.9959 30.3473 77.6185 31.1158 76.5326C31.5259 75.9528 31.9722 74.9665 32.4422 73.6009C32.9829 72.0296 33.5422 70.4046 32.4083 68.9378C30.9559 67.059 29.6715 64.7262 28.5848 62.0646C29.865 61.9192 31.1725 61.7975 32.5025 61.7025C34.2206 61.5795 35.5137 60.087 35.3906 58.369C35.2679 56.6507 33.7762 55.3573 32.0573 55.4807ZM63.1143 15.3348C61.3809 15.8448 59.5103 16.2937 57.5286 16.6762C56.5218 14.0034 55.3421 11.5681 54.014 9.45359C53.9536 9.35718 53.8918 9.26343 53.8306 9.16859C57.2496 10.6969 60.3879 12.7828 63.1143 15.3348ZM43.04 7.02343C46.1447 8.5864 49.0203 12.3933 51.1931 17.6314C48.5759 17.9253 45.8418 18.1172 43.04 18.1992V7.02343ZM29.6992 15.2928C31.7509 11.1892 34.2342 8.33499 36.8023 7.03406V18.199C33.9951 18.1169 31.2556 17.9245 28.6336 17.6297C28.9694 16.8236 29.324 16.0428 29.6992 15.2928ZM36.8023 24.4392V36.8025H24.7073C24.9087 32.1519 25.5597 27.7033 26.6183 23.6645C29.8729 24.0783 33.2961 24.3409 36.8023 24.4392ZM25.9365 9.27937C25.3009 10.2789 24.6945 11.3541 24.12 12.5031C23.4609 13.8211 22.8559 15.2158 22.3048 16.6744C20.3826 16.3031 18.5639 15.8698 16.875 15.3784C19.529 12.885 22.5856 10.8147 25.9365 9.27937ZM12.4167 20.4962C14.8289 21.3419 17.5297 22.0656 20.443 22.6553C19.3378 27.0534 18.664 31.8386 18.4647 36.8023H6.38093C6.93749 30.7681 9.09202 25.19 12.4167 20.4962ZM6.38062 43.04H18.4658C18.6656 47.9551 19.3347 52.6923 20.4148 57.0376C17.4558 57.6389 14.7205 58.3765 12.2987 59.2317C9.0114 54.525 6.92546 48.9711 6.38062 43.04ZM16.7111 64.3587C18.4264 63.8549 20.2859 63.4084 22.2589 63.0257C23.3034 65.8237 24.5411 68.371 25.9539 70.586C22.4948 69.0153 19.3848 66.8978 16.7111 64.3587Z" fill="#1CAAE6"/>
</svg>
