<svg width="80" height="80" viewBox="0 0 80 80" fill="none" xmlns="http://www.w3.org/2000/svg">
<g clip-path="url(#clip0)">
<path d="M35.4581 62.4918C32.3394 65.3739 28.0258 66.0193 24.1998 64.1772C22.8167 63.5111 21.6495 62.5914 20.7358 61.4898L15.5263 73.0123C15.2892 73.5365 15.5539 73.9317 15.6786 74.0772C15.8033 74.2225 16.1534 74.5442 16.7075 74.3901L20.5 73.3345C20.9322 73.2143 21.3691 73.1564 21.7998 73.1564C23.6172 73.1564 25.3277 74.185 26.1513 75.8895L27.8641 79.434C28.1142 79.952 28.5834 80.0037 28.7788 79.9998C28.9703 79.9973 29.4416 79.9351 29.6784 79.4109L37.9648 61.0822C37.0544 61.3442 36.1922 61.8134 35.4581 62.4918Z" fill="#1CAAE6"/>
<path d="M64.4736 73.0123L59.264 61.4898C58.3503 62.5915 57.1831 63.5112 55.8 64.1772C51.9739 66.0193 47.6604 65.3739 44.5417 62.4918C43.8076 61.8134 42.9454 61.3442 42.0347 61.0822L50.3211 79.4109C50.5581 79.9353 51.0294 79.9973 51.2208 79.9998C51.4161 80.0037 51.8853 79.952 52.1354 79.434L53.8483 75.8895C54.6717 74.185 56.3823 73.1564 58.1997 73.1564C58.6304 73.1564 59.0675 73.2143 59.4995 73.3345L63.292 74.3901C63.8461 74.5443 64.1964 74.2226 64.3209 74.0772C64.4459 73.9315 64.7106 73.5364 64.4736 73.0123Z" fill="#1CAAE6"/>
<path d="M68.5658 32.4673C64.2392 29.5048 62.8967 23.6228 65.5095 19.0764C67.08 16.3434 66.2627 13.6428 64.9741 12.0267C63.6853 10.4111 61.2341 9.01344 58.2205 9.93609C53.2073 11.4716 47.7709 8.85406 45.8453 3.97656C44.6878 1.04469 42.0667 0 40 0C37.9333 0 35.3122 1.04469 34.1547 3.97672C32.2291 8.85437 26.7931 11.4716 21.7795 9.93625C18.7656 9.01375 16.3148 10.4111 15.0259 12.0269C13.7373 13.643 12.92 16.3433 14.4905 19.0766C17.1033 23.6228 15.7608 29.505 11.4342 32.4675C8.83329 34.2486 8.39813 37.0362 8.85782 39.0513C9.31751 41.0662 10.9194 43.3889 14.0355 43.865C19.2189 44.6569 22.9805 49.3738 22.5994 54.6036C22.37 57.7475 24.2783 59.8259 26.1403 60.7228C28.0025 61.6195 30.8172 61.8158 33.1322 59.6763C35.0575 57.897 37.5292 57.007 39.9998 57.007C42.4714 57.007 44.9417 57.8966 46.8673 59.6763C49.1827 61.8159 51.9975 61.6197 53.8595 60.7228C55.7216 59.8261 57.6297 57.7477 57.4005 54.6037C57.0194 49.3739 60.7809 44.657 65.9644 43.865C69.0805 43.3889 70.682 41.0661 71.142 39.0513C71.6019 37.0359 71.1664 34.2483 68.5658 32.4673ZM40 52.488C28.6602 52.488 19.4345 43.2623 19.4345 31.9225C19.4345 20.5827 28.66 11.3569 40 11.3569C51.34 11.3569 60.5655 20.5825 60.5655 31.9223C60.5653 43.2622 51.3398 52.488 40 52.488Z" fill="#1CAAE6"/>
<path d="M39.9998 15.1914C30.7742 15.1914 23.2687 22.697 23.2687 31.9225C23.2687 41.148 30.774 48.6536 39.9998 48.6536C49.2256 48.6536 56.7309 41.148 56.7309 31.9225C56.7309 22.697 49.2255 15.1914 39.9998 15.1914ZM48.574 30.3003L38.1612 37.9058C37.8308 38.1472 37.4342 38.2748 37.0305 38.2748C36.9264 38.2748 36.8219 38.2664 36.7178 38.2492C36.2101 38.1653 35.7573 37.8808 35.4614 37.4595L32.3467 33.0248C31.7381 32.1581 31.9473 30.9623 32.8137 30.3538C33.6803 29.7452 34.8759 29.9542 35.4847 30.8208L37.4769 33.6573L46.3125 27.2039C47.1676 26.5797 48.3672 26.7659 48.9915 27.6212C49.6161 28.4762 49.429 29.6756 48.574 30.3003Z" fill="black"/>
</g>
<defs>
<clipPath id="clip0">
<rect width="80" height="80" fill="white"/>
</clipPath>
</defs>
</svg>
