<svg width="87" height="87" viewBox="0 0 87 87" fill="none" xmlns="http://www.w3.org/2000/svg">
<g clip-path="url(#clip0)">
<path d="M66.0393 69.6351C66.0393 73.2137 63.128 76.125 59.5494 76.125C55.9708 76.125 53.0595 73.2137 53.0595 69.6351C53.0595 67.061 54.5657 64.8325 56.743 63.784V28.5907C56.743 27.0407 57.9994 25.7843 59.5494 25.7843C61.0995 25.7843 62.3559 27.0407 62.3559 28.5907V63.784C64.5332 64.8325 66.0393 67.061 66.0393 69.6351ZM17.6281 7.71774C17.6281 11.9734 14.1659 15.4355 9.91031 15.4355C5.65468 15.4355 2.19257 11.9734 2.19257 7.71774C2.19257 3.46211 5.65468 0 9.91031 0C14.1659 0 17.6281 3.46211 17.6281 7.71774ZM12.0151 7.71774C12.0151 6.5571 11.071 5.6129 9.91031 5.6129C8.74967 5.6129 7.80547 6.5571 7.80547 7.71774C7.80547 8.87839 8.74967 9.82258 9.91031 9.82258C11.071 9.82258 12.0151 8.87839 12.0151 7.71774ZM38.3602 30.6165C37.1648 29.63 35.396 29.7996 34.4094 30.9952C30.6068 35.6046 23.0656 32.9197 23.0656 26.9244V18.6804C23.0656 12.6902 30.603 9.99728 34.4092 14.6093C35.3959 15.8047 37.1648 15.974 38.36 14.9873C39.5554 14.0007 39.7247 12.2319 38.738 11.0365C36.4453 8.25851 33.0665 6.66532 29.4678 6.66532C22.8426 6.66532 17.4526 12.0553 17.4526 18.6804V26.9244C17.4526 33.5495 22.8426 38.9395 29.4678 38.9395C33.0672 38.9395 36.4465 37.3458 38.7389 34.5672C39.7254 33.3717 39.5559 31.6029 38.3602 30.6165ZM84.8075 12.629C84.8075 14.1791 83.5511 15.4355 82.001 15.4355H71.3014V27.3629H78.493C80.043 27.3629 81.2994 28.6193 81.2994 30.1694C81.2994 31.7194 80.043 32.9758 78.493 32.9758H71.3014V44.9032H74.9849C76.535 44.9032 77.7914 46.1596 77.7914 47.7097C77.7914 49.2597 76.535 50.5161 74.9849 50.5161H71.3014V56.8499C74.8853 60.1338 76.9143 64.7191 76.9143 69.6351C76.9143 79.2102 69.1245 87 59.5494 87C49.9743 87 42.1845 79.2102 42.1845 69.6351C42.1845 64.7192 44.2136 60.1338 47.7974 56.8499V11.752C47.7974 5.27192 53.0693 0 59.5494 0C65.3723 0 70.2169 4.25756 71.1404 9.82258H82.001C83.5511 9.82258 84.8075 11.079 84.8075 12.629ZM71.3014 69.6351C71.3014 65.9869 69.6498 62.6076 66.7699 60.3633C66.0874 59.8316 65.6885 59.0148 65.6885 58.1497V11.752C65.6885 8.36691 62.9345 5.6129 59.5494 5.6129C56.1643 5.6129 53.4103 8.36691 53.4103 11.752V58.1497C53.4103 59.0149 53.0114 59.8316 52.3289 60.3633C49.449 62.6076 47.7974 65.9869 47.7974 69.6351C47.7974 76.1152 53.0693 81.3871 59.5494 81.3871C66.0295 81.3871 71.3014 76.1152 71.3014 69.6351Z" fill="#1CAAE6"/>
<circle cx="59.75" cy="69.75" r="6.75" fill="black"/>
<rect x="56.5" y="25" width="6" height="39.8" rx="3" fill="black"/>
<rect x="56.5" y="29" width="6" height="39.8" rx="3" fill="black"/>
</g>
<defs>
<clipPath id="clip0">
<rect width="87" height="87" fill="white"/>
</clipPath>
</defs>
</svg>
