<svg width="57" height="57" viewBox="0 0 57 57" fill="none" xmlns="http://www.w3.org/2000/svg">
<g clip-path="url(#clip0)">
<mask id="path-1-inside-1" fill="white">
<path d="M55.535 43.7248L40.3088 28.4985C40.8324 27.9748 53.3606 15.4466 54.5546 14.2529C57.8098 10.9975 57.8098 5.70067 54.5546 2.44533C51.2993 -0.810009 46.0023 -0.810009 42.7471 2.44533L36.6415 8.55089C36.6413 8.55111 36.6409 8.55144 36.6407 8.55166L28.5014 16.6911L13.2772 1.46709C11.324 -0.486156 8.14568 -0.486045 6.19265 1.46709L1.46979 6.19007C-0.483463 8.14331 -0.483463 11.3214 1.46979 13.2746C3.09417 14.899 14.8052 26.6101 16.6937 28.4985L4.94255 40.2496C4.9421 40.2501 4.94166 40.2506 4.94121 40.2512C4.73737 40.4559 4.5942 40.7206 4.52663 40.9407L0.0795222 54.8203C-0.111294 55.416 0.0467918 56.0682 0.489098 56.5105C0.932183 56.9536 1.58479 57.1106 2.17939 56.92L16.0788 52.4667C16.3377 52.3828 16.573 52.2343 16.75 52.0573L28.501 40.3062L43.7273 55.5325C45.6803 57.4855 48.8586 57.4856 50.8119 55.5325L55.5349 50.8094C57.4882 48.8561 57.4882 45.6781 55.535 43.7248ZM45.1082 4.80671C47.0617 2.85346 50.2395 2.85346 52.1929 4.80671C54.146 6.75984 54.146 9.93803 52.1929 11.8912L50.8063 13.2778C50.5618 11.5474 49.776 9.87947 48.4479 8.55144C47.1531 7.25636 45.5072 6.44044 43.7253 6.18962L45.1082 4.80671ZM39.0021 10.9128C40.9598 8.95545 44.1285 8.95501 46.0863 10.913C48.0439 12.8707 48.0443 16.0396 46.0863 17.9975L37.947 26.1369L30.8625 19.0523C31.6717 18.2433 37.995 11.92 39.0021 10.9128ZM4.25009 52.7496L5.30826 49.4467C5.78675 49.6859 6.22683 50.0017 6.61236 50.3874C6.99788 50.773 7.31383 51.2131 7.55297 51.6914L4.25009 52.7496ZM14.0484 49.6103L10.7555 50.6653C10.3399 49.6859 9.73911 48.7912 8.97384 48.0259C8.20858 47.2605 7.31372 46.6595 6.33437 46.2441L7.38943 42.9512C9.1788 42.8539 10.8907 43.5039 12.1932 44.8065C13.4957 46.1089 14.1457 47.821 14.0484 49.6103ZM17.1125 46.9717C16.6951 45.2844 15.825 43.7152 14.5547 42.445C13.2844 41.1746 11.7153 40.3045 10.028 39.8871L19.0551 30.86L26.1396 37.9445L17.1125 46.9717ZM53.1735 48.4477L48.4505 53.1707C47.7993 53.8218 46.7401 53.8218 46.0889 53.1707L45.0328 52.1146L48.5753 48.5723C49.2275 47.9202 49.2275 46.8629 48.5753 46.2108C47.9234 45.5586 46.8661 45.5586 46.2138 46.2108L42.6714 49.7531L40.3099 47.3916L41.4907 46.2108C42.1429 45.5586 42.1429 44.5014 41.4907 43.8493C40.8388 43.1972 39.7815 43.1971 39.1292 43.8493L37.9484 45.0301L35.5869 42.6687L39.1292 39.1263C39.7814 38.4742 39.7814 37.417 39.1292 36.7648C38.4772 36.1127 37.4199 36.1127 36.7677 36.7648L33.2254 40.3072L30.8638 37.9456L32.0446 36.7647C32.6967 36.1126 32.6967 35.0554 32.0446 34.4032C31.3925 33.7511 30.3352 33.7511 29.6831 34.4032L28.5023 35.5841L26.1408 33.2225L29.6832 29.6801C30.3353 29.028 30.3353 27.9708 29.6832 27.3187C29.0312 26.6665 27.974 26.6665 27.3217 27.3187L23.7792 30.861L21.4177 28.4996L22.5986 27.3189C23.2508 26.6667 23.2508 25.6095 22.5986 24.9574C21.9466 24.3052 20.8893 24.3052 20.2371 24.9574L19.0564 26.1382L16.6948 23.7766L20.2371 20.2343C20.8893 19.5821 20.8893 18.525 20.2371 17.8728C19.5852 17.2207 18.5279 17.2207 17.8756 17.8728L14.3333 21.4152L11.9718 19.0537L13.1526 17.8729C13.8048 17.2208 13.8048 16.1636 13.1526 15.5114C12.5006 14.8593 11.4433 14.8593 10.7912 15.5114L9.61031 16.6923L7.24882 14.3308L10.7909 10.7885C11.4431 10.1363 11.4431 9.07914 10.7909 8.42698C10.1389 7.77482 9.08161 7.77482 8.42945 8.42698L4.88722 11.9693L3.83127 10.9134C3.18012 10.2623 3.18012 9.20293 3.83127 8.55189L8.55436 3.82891C9.20563 3.17776 10.2647 3.17776 10.916 3.82891C12.6967 5.60938 50.4142 43.3269 53.1735 46.0862C53.8246 46.7374 53.8246 47.7967 53.1735 48.4477Z"/>
</mask>
<path d="M55.535 43.7248L40.3088 28.4985C40.8324 27.9748 53.3606 15.4466 54.5546 14.2529C57.8098 10.9975 57.8098 5.70067 54.5546 2.44533C51.2993 -0.810009 46.0023 -0.810009 42.7471 2.44533L36.6415 8.55089C36.6413 8.55111 36.6409 8.55144 36.6407 8.55166L28.5014 16.6911L13.2772 1.46709C11.324 -0.486156 8.14568 -0.486045 6.19265 1.46709L1.46979 6.19007C-0.483463 8.14331 -0.483463 11.3214 1.46979 13.2746C3.09417 14.899 14.8052 26.6101 16.6937 28.4985L4.94255 40.2496C4.9421 40.2501 4.94166 40.2506 4.94121 40.2512C4.73737 40.4559 4.5942 40.7206 4.52663 40.9407L0.0795222 54.8203C-0.111294 55.416 0.0467918 56.0682 0.489098 56.5105C0.932183 56.9536 1.58479 57.1106 2.17939 56.92L16.0788 52.4667C16.3377 52.3828 16.573 52.2343 16.75 52.0573L28.501 40.3062L43.7273 55.5325C45.6803 57.4855 48.8586 57.4856 50.8119 55.5325L55.5349 50.8094C57.4882 48.8561 57.4882 45.6781 55.535 43.7248ZM45.1082 4.80671C47.0617 2.85346 50.2395 2.85346 52.1929 4.80671C54.146 6.75984 54.146 9.93803 52.1929 11.8912L50.8063 13.2778C50.5618 11.5474 49.776 9.87947 48.4479 8.55144C47.1531 7.25636 45.5072 6.44044 43.7253 6.18962L45.1082 4.80671ZM39.0021 10.9128C40.9598 8.95545 44.1285 8.95501 46.0863 10.913C48.0439 12.8707 48.0443 16.0396 46.0863 17.9975L37.947 26.1369L30.8625 19.0523C31.6717 18.2433 37.995 11.92 39.0021 10.9128ZM4.25009 52.7496L5.30826 49.4467C5.78675 49.6859 6.22683 50.0017 6.61236 50.3874C6.99788 50.773 7.31383 51.2131 7.55297 51.6914L4.25009 52.7496ZM14.0484 49.6103L10.7555 50.6653C10.3399 49.6859 9.73911 48.7912 8.97384 48.0259C8.20858 47.2605 7.31372 46.6595 6.33437 46.2441L7.38943 42.9512C9.1788 42.8539 10.8907 43.5039 12.1932 44.8065C13.4957 46.1089 14.1457 47.821 14.0484 49.6103ZM17.1125 46.9717C16.6951 45.2844 15.825 43.7152 14.5547 42.445C13.2844 41.1746 11.7153 40.3045 10.028 39.8871L19.0551 30.86L26.1396 37.9445L17.1125 46.9717ZM53.1735 48.4477L48.4505 53.1707C47.7993 53.8218 46.7401 53.8218 46.0889 53.1707L45.0328 52.1146L48.5753 48.5723C49.2275 47.9202 49.2275 46.8629 48.5753 46.2108C47.9234 45.5586 46.8661 45.5586 46.2138 46.2108L42.6714 49.7531L40.3099 47.3916L41.4907 46.2108C42.1429 45.5586 42.1429 44.5014 41.4907 43.8493C40.8388 43.1972 39.7815 43.1971 39.1292 43.8493L37.9484 45.0301L35.5869 42.6687L39.1292 39.1263C39.7814 38.4742 39.7814 37.417 39.1292 36.7648C38.4772 36.1127 37.4199 36.1127 36.7677 36.7648L33.2254 40.3072L30.8638 37.9456L32.0446 36.7647C32.6967 36.1126 32.6967 35.0554 32.0446 34.4032C31.3925 33.7511 30.3352 33.7511 29.6831 34.4032L28.5023 35.5841L26.1408 33.2225L29.6832 29.6801C30.3353 29.028 30.3353 27.9708 29.6832 27.3187C29.0312 26.6665 27.974 26.6665 27.3217 27.3187L23.7792 30.861L21.4177 28.4996L22.5986 27.3189C23.2508 26.6667 23.2508 25.6095 22.5986 24.9574C21.9466 24.3052 20.8893 24.3052 20.2371 24.9574L19.0564 26.1382L16.6948 23.7766L20.2371 20.2343C20.8893 19.5821 20.8893 18.525 20.2371 17.8728C19.5852 17.2207 18.5279 17.2207 17.8756 17.8728L14.3333 21.4152L11.9718 19.0537L13.1526 17.8729C13.8048 17.2208 13.8048 16.1636 13.1526 15.5114C12.5006 14.8593 11.4433 14.8593 10.7912 15.5114L9.61031 16.6923L7.24882 14.3308L10.7909 10.7885C11.4431 10.1363 11.4431 9.07914 10.7909 8.42698C10.1389 7.77482 9.08161 7.77482 8.42945 8.42698L4.88722 11.9693L3.83127 10.9134C3.18012 10.2623 3.18012 9.20293 3.83127 8.55189L8.55436 3.82891C9.20563 3.17776 10.2647 3.17776 10.916 3.82891C12.6967 5.60938 50.4142 43.3269 53.1735 46.0862C53.8246 46.7374 53.8246 47.7967 53.1735 48.4477Z" fill="white" stroke="#1CAAE6" stroke-width="1.4" mask="url(#path-1-inside-1)"/>
</g>
<defs>
<clipPath id="clip0">
<rect width="57" height="57" fill="white"/>
</clipPath>
</defs>
</svg>
