<svg width="66" height="66" viewBox="0 0 66 66" fill="none" xmlns="http://www.w3.org/2000/svg">
<path d="M64.9688 22.209C64.9688 19.6298 62.8702 17.5312 60.291 17.5312C59.0422 17.5312 57.8665 18.018 56.9838 18.9018L53.9272 21.9584L50.5312 25.3543V15.3863C54.0241 14.883 56.7188 11.879 56.7188 8.25C56.7188 4.26938 53.4806 1.03125 49.5 1.03125H8.25C4.26938 1.03125 1.03125 4.26938 1.03125 8.25V59.8125C1.03125 60.3817 1.49325 60.8438 2.0625 60.8438H7.21875V63.9375C7.21875 64.5067 7.68075 64.9688 8.25 64.9688H49.5C50.0692 64.9688 50.5312 64.5067 50.5312 63.9375V38.5832L60.5416 28.5728L61.6007 27.5138C61.0665 30.1744 59.764 32.6205 57.8026 34.583L52.8969 39.4886L54.3551 40.9468L59.2608 36.0412C62.1875 33.1145 63.8241 29.2493 63.92 25.1254C64.5872 24.2983 64.9688 23.2877 64.9688 22.209ZM58.442 20.36C58.9359 19.866 59.5928 19.5938 60.291 19.5938C61.7327 19.5938 62.9062 20.7673 62.9062 22.209C62.9062 22.9072 62.634 23.5641 62.14 24.058L59.8125 26.3856L56.1144 22.6875L58.442 20.36ZM54.6562 24.1457L55.7762 25.2656L42.7969 38.2449L41.6769 37.125L54.6562 24.1457ZM30.13 51.3593L32.2513 47.1157L35.3843 50.2487L31.1407 52.37L30.13 51.3593ZM33.4269 45.375L40.2188 38.5832L43.9168 42.2812L37.125 49.0731L33.4269 45.375ZM49.5 3.09375C52.3432 3.09375 54.6562 5.40684 54.6562 8.25C54.6562 11.0932 52.3432 13.4062 49.5 13.4062H13.2928C14.6334 12.0945 15.4688 10.2692 15.4688 8.25C15.4688 6.23081 14.6334 4.4055 13.2928 3.09375H49.5ZM9.28125 13.3021V10.3125C9.28125 9.74428 9.74428 9.28125 10.3125 9.28125H13.3021C12.8906 11.2984 11.2984 12.8906 9.28125 13.3021ZM3.09375 58.7812V8.25C3.09375 5.40684 5.40684 3.09375 8.25 3.09375C10.7394 3.09375 12.8226 4.86853 13.3021 7.21875H10.3125C8.60681 7.21875 7.21875 8.60681 7.21875 10.3125V58.7812H3.09375ZM48.4688 62.9062H9.28125V15.4688H48.4688V27.4168L43.9168 31.9688H13.4062V34.0312H41.8543L39.7918 36.0938H13.4062V38.1562H37.7293L31.2397 44.6459C31.1592 44.7263 31.1066 44.8223 31.0582 44.9192L31.0468 44.913L27.9531 51.1005C27.7551 51.4975 27.8324 51.9771 28.1469 52.2906L28.4481 52.5938L26.0834 54.9584L27.5416 56.4166L29.9062 54.0519L30.2084 54.3541C30.4064 54.5521 30.6704 54.6562 30.9375 54.6562C31.0932 54.6562 31.252 54.6202 31.3985 54.548L37.586 51.4542L37.5798 51.4429C37.6767 51.3944 37.7726 51.3418 37.8531 51.2614L46.1031 43.0114L48.4688 40.6457V62.9062ZM45.375 40.8231L44.2551 39.7031L57.2344 26.7238L58.3543 27.8438L45.375 40.8231Z" fill="white"/>
<path d="M13.4062 19.5938H44.3438V21.6562H13.4062V19.5938Z" fill="white"/>
<path d="M13.4062 23.7188H44.3438V25.7812H13.4062V23.7188Z" fill="white"/>
<path d="M13.4062 27.8438H44.3438V29.9062H13.4062V27.8438Z" fill="white"/>
<path d="M13.4062 52.5938H24.75V54.6562H13.4062V52.5938Z" fill="white"/>
<path d="M13.4062 56.7188H44.3438V58.7812H13.4062V56.7188Z" fill="white"/>
</svg>
