<svg width="56" height="56" viewBox="0 0 56 56" fill="none" xmlns="http://www.w3.org/2000/svg">
<path d="M39.7616 53.0584C39.9472 53.0707 40.1432 53.0707 40.3178 53.0707H40.3219C42.2319 53.0707 43.7055 52.4414 44.9485 51.1122L44.9487 51.1124L44.9565 51.1033C45.6805 50.2509 46.4528 49.49 47.2196 48.7586L47.2217 48.7565C47.3117 48.6686 47.4008 48.582 47.4892 48.496C47.8964 48.1001 48.2879 47.7195 48.6707 47.3074C49.299 46.6539 49.6433 45.972 49.6416 45.2677C49.64 44.5619 49.2909 43.8906 48.6539 43.2595C48.6536 43.2592 48.6533 43.2589 48.653 43.2587L42.1415 36.7472L42.1219 36.7275C41.7365 36.3063 41.0732 35.7875 40.2392 35.7875C39.3908 35.7875 38.6907 36.3341 38.2777 36.7472L34.2355 40.7893C34.039 40.9859 33.488 41.5316 32.6158 41.5316C32.2695 41.5316 31.9294 41.4485 31.5575 41.2625C31.5531 41.2603 31.5483 41.2577 31.5425 41.2544C31.5338 41.2493 31.5228 41.2425 31.5073 41.2328L31.5043 41.2309C31.485 41.2189 31.4573 41.2015 31.4271 41.1856C31.0765 40.9688 30.6694 40.7653 30.2525 40.5568L30.2456 40.5534C29.7713 40.3163 29.2861 40.0734 28.8139 39.774L28.8136 39.7738C25.0459 37.3911 21.6263 34.2783 18.3787 30.2776L18.3705 30.2676L18.3614 30.2584L18.36 30.2571C16.5805 27.9962 15.4158 26.1064 14.5896 24.1073L14.5746 24.0624L14.5575 24.0111C14.4551 23.6863 14.3674 23.3105 14.4144 22.9041C14.4607 22.5037 14.6405 22.0527 15.1111 21.5821L15.1398 21.5534L15.1419 21.5491C15.1483 21.5436 15.156 21.5368 15.1644 21.5287C16.1965 20.6031 17.1447 19.6548 18.1363 18.6397C18.3655 18.4183 18.5911 18.19 18.8161 17.9624C18.9285 17.8487 19.0408 17.7351 19.1532 17.6227C19.8034 16.9725 20.1661 16.3098 20.1661 15.6139C20.1661 14.9181 19.8034 14.2554 19.1532 13.6052L15.9279 10.3799C15.74 10.1861 15.5522 9.99534 15.3666 9.8068L15.3621 9.80228C15.1744 9.6116 14.989 9.42322 14.8066 9.23497C14.0852 8.48987 13.396 7.78877 12.6704 7.11058L12.6704 7.11051L12.6703 7.11044L12.6702 7.11037L12.6702 7.1103L12.6701 7.11023L12.67 7.11016L12.67 7.11009L12.6699 7.11002L12.6698 7.10995L12.6697 7.10989L12.6697 7.10982L12.6696 7.10975L12.6695 7.10968L12.6695 7.10961L12.6694 7.10954L12.6693 7.10947L12.6693 7.1094L12.6692 7.10933L12.6691 7.10926L12.6691 7.10919L12.669 7.10912L12.6689 7.10905L12.6688 7.10899L12.6688 7.10892L12.6687 7.10885L12.6686 7.10878L12.6686 7.10871L12.6685 7.10864L12.6684 7.10857L12.6684 7.1085L12.6683 7.10843L12.6682 7.10836L12.6682 7.10829L12.6681 7.10822L12.668 7.10815L12.6679 7.10808L12.6679 7.10802L12.6678 7.10795L12.6677 7.10788L12.6677 7.10781L12.6676 7.10774L12.6675 7.10767L12.6675 7.1076L12.6674 7.10753L12.6673 7.10746L12.6673 7.10739L12.6672 7.10732L12.6671 7.10725L12.667 7.10718L12.667 7.10712L12.6669 7.10705L12.6668 7.10698L12.6668 7.10691L12.6667 7.10684L12.6666 7.10677L12.6666 7.1067L12.6665 7.10663L12.6664 7.10656L12.6664 7.10649L12.6663 7.10642L12.6662 7.10635L12.6661 7.10628L12.6661 7.10622L12.666 7.10615L12.6659 7.10608L12.6659 7.10601L12.6658 7.10594L12.6657 7.10587L12.6657 7.1058L12.6656 7.10573L12.6655 7.10566L12.6655 7.10559L12.6654 7.10552L12.6653 7.10545L12.6652 7.10538L12.6652 7.10531L12.6651 7.10525L12.665 7.10518L12.665 7.10511L12.6649 7.10504L12.6648 7.10497L12.6648 7.1049L12.6647 7.10483L12.6646 7.10476L12.6646 7.10469L12.6645 7.10462L12.6644 7.10455L12.6643 7.10448L12.6643 7.10441L12.6642 7.10435L12.6641 7.10428L12.6641 7.10421L12.664 7.10414L12.6639 7.10407L12.6639 7.104L12.6638 7.10393L12.6637 7.10386L12.6637 7.10379L12.6636 7.10372L12.6635 7.10365L12.6634 7.10358L12.6634 7.10351L12.6633 7.10344L12.6632 7.10338L12.6632 7.10331L12.6631 7.10324L12.663 7.10317L12.663 7.1031L12.6629 7.10303L12.6628 7.10296L12.6628 7.10289L12.6627 7.10282L12.6626 7.10275L12.6625 7.10268L12.6625 7.10261L12.6624 7.10254L12.6623 7.10248L12.6623 7.10241L12.6622 7.10234L12.6621 7.10227L12.6621 7.1022L12.662 7.10213L12.6619 7.10206L12.6619 7.10199L12.6618 7.10192L12.6617 7.10185L12.6616 7.10178L12.6616 7.10171L12.6615 7.10164L12.6614 7.10157L12.6614 7.10151L12.6613 7.10144L12.6612 7.10137L12.6612 7.1013L12.6611 7.10123L12.661 7.10116L12.661 7.10109L12.6609 7.10102L12.6608 7.10095L12.6607 7.10088L12.6607 7.10081L12.6606 7.10074L12.6605 7.10067L12.6605 7.10061L12.6604 7.10054L12.6603 7.10047L12.6603 7.1004L12.6602 7.10033L12.6601 7.10026L12.6601 7.10019L12.66 7.10012L12.6599 7.10005L12.6598 7.09998L12.6598 7.09991L12.6597 7.09984L12.6596 7.09977L12.6596 7.0997L12.6595 7.09964L12.6594 7.09957L12.6594 7.0995L12.6593 7.09943L12.6592 7.09936L12.6592 7.09929L12.6591 7.09922L12.659 7.09915L12.6589 7.09908L12.6589 7.09901L12.6588 7.09894L12.6587 7.09887L12.6587 7.0988L12.6586 7.09874L12.6585 7.09867L12.6585 7.0986L12.6584 7.09853L12.6583 7.09846L12.6583 7.09839L12.6582 7.09832L12.6581 7.09825L12.658 7.09818L12.658 7.09811L12.6579 7.09804L12.6578 7.09797L12.6578 7.0979L12.6577 7.09784L12.6576 7.09777L12.6576 7.0977L12.6575 7.09763L12.6574 7.09756L12.6574 7.09749L12.6573 7.09742L12.6572 7.09735L12.6571 7.09728L12.6571 7.09721L12.657 7.09714L12.6569 7.09707L12.6569 7.097L12.6568 7.09693L12.6567 7.09687L12.6567 7.0968L12.6566 7.09673L12.6565 7.09666L12.6565 7.09659L12.6564 7.09652L12.6563 7.09645L12.6562 7.09638L12.6562 7.09631L12.6561 7.09624L12.656 7.09617L12.656 7.0961L12.6559 7.09603L12.6558 7.09597L12.6558 7.0959L12.6557 7.09583L12.6556 7.09576L12.6556 7.09569L12.6555 7.09562L12.6554 7.09555L12.6553 7.09548L12.6553 7.09541L12.6552 7.09534L12.6551 7.09527L12.6551 7.0952L12.655 7.09513L12.6549 7.09507L12.6549 7.095L12.6548 7.09493L12.6547 7.09486L12.6547 7.09479L12.6546 7.09472L12.6545 7.09465L12.6544 7.09458L12.6544 7.09451L12.6543 7.09444L12.6542 7.09437L12.6542 7.0943L12.6541 7.09423L12.654 7.09416L12.654 7.0941L12.6539 7.09403L12.6538 7.09396L12.6538 7.09389L12.6537 7.09382L12.6536 7.09375L12.6535 7.09368L12.6535 7.09361L12.6534 7.09354L12.6533 7.09347L12.6533 7.0934L12.6532 7.09333L12.6531 7.09326L12.6531 7.0932L12.653 7.09313L12.6529 7.09306L12.6529 7.09299L12.6528 7.09292L12.6527 7.09285L12.6526 7.09278L12.6526 7.09271L12.6525 7.09264L12.6524 7.09257L12.6524 7.0925L12.6523 7.09243L12.6522 7.09236L12.6522 7.09229L12.6521 7.09223L12.652 7.09216L12.652 7.09209L12.6519 7.09202L12.6518 7.09195L12.6517 7.09188L12.6517 7.09181L12.6516 7.09174L12.6515 7.09167L12.6515 7.0916L12.6514 7.09153L12.6513 7.09146L12.6513 7.09139L12.6512 7.09133L12.6511 7.09126L12.6511 7.09119L12.651 7.09112L12.6509 7.09105L12.6508 7.09098L12.6508 7.09091L12.6507 7.09084L12.6506 7.09077L12.6506 7.0907L12.6505 7.09063L12.6504 7.09056L12.6504 7.09049L12.6503 7.09043L12.6502 7.09036L12.6502 7.09029L12.6501 7.09022L12.65 7.09015L12.6499 7.09008L12.6499 7.09001L12.6498 7.08994L12.6497 7.08987L12.6497 7.0898L12.6496 7.08973L12.6495 7.08966L12.6495 7.08959L12.6494 7.08952L12.6493 7.08946L12.6493 7.08939L12.6492 7.08932L12.6491 7.08925L12.649 7.08918L12.649 7.08911L12.6489 7.08904L12.6488 7.08897L12.6488 7.0889L12.6487 7.08883L12.6486 7.08876L12.6486 7.08869L12.6485 7.08862L12.6484 7.08856L12.6483 7.08849L12.6483 7.08842L12.6482 7.08835L12.6481 7.08828L12.6481 7.08821L12.648 7.08814L12.6479 7.08807L12.6479 7.088L12.6478 7.08793L12.6477 7.08786L12.6477 7.08779L12.6476 7.08772L12.6475 7.08765L12.6474 7.08759L12.6474 7.08752L12.6473 7.08745L12.6472 7.08738L12.6472 7.08731L12.6471 7.08724L12.647 7.08717L12.647 7.0871L12.6469 7.08703L12.6468 7.08696L12.6468 7.08689L12.6467 7.08682L12.6466 7.08675L12.6465 7.08669L12.6465 7.08662L12.6464 7.08655L12.6463 7.08648L12.6463 7.08641L12.6462 7.08634L12.6461 7.08627L12.6461 7.0862L12.646 7.08613L12.6459 7.08606L12.6459 7.08599L12.6458 7.08592L12.6457 7.08585L12.6456 7.08578L12.6456 7.08572L12.6455 7.08565L12.6454 7.08558L12.6454 7.08551L12.6453 7.08544L12.6452 7.08537L12.6452 7.0853L12.6451 7.08523L12.645 7.08516L12.645 7.08509L12.6449 7.08502L12.6448 7.08495L12.6447 7.08488L12.6447 7.08482L12.6446 7.08475L12.6445 7.08468L12.6445 7.08461L12.6444 7.08454L12.6443 7.08447L12.6443 7.0844L12.6442 7.08433L12.6441 7.08426L12.6441 7.08419L12.644 7.08412L12.6439 7.08405L12.6438 7.08398L12.6438 7.08392L12.6437 7.08385L12.6436 7.08378L12.6436 7.08371L12.6435 7.08364L12.6434 7.08357L12.6434 7.0835L12.6433 7.08343L12.6432 7.08336L12.6432 7.08329L12.6431 7.08322L12.643 7.08315L12.6429 7.08308L12.6429 7.08301L12.6428 7.08295L12.6427 7.08288L12.6427 7.08281L12.6426 7.08274L12.6425 7.08267L12.6425 7.0826L12.6424 7.08253L12.6423 7.08246L12.6423 7.08239L12.6422 7.08232L12.6421 7.08225L12.642 7.08218L12.642 7.08211L12.6419 7.08205L12.6418 7.08198L12.6418 7.08191L12.6417 7.08184L12.6416 7.08177L12.6416 7.0817L12.6415 7.08163L12.6414 7.08156L12.6414 7.08149L12.6413 7.08142L12.6412 7.08135L12.6411 7.08128L12.6411 7.08121L12.641 7.08115L12.6409 7.08108L12.6409 7.08101L12.4669 7.25497L12.6409 7.081C12.2471 6.68724 11.5834 6.18044 10.7385 6.18044C10.0514 6.18044 9.37861 6.51679 8.77086 7.08733L8.77078 7.08724L8.7652 7.09282L4.73486 11.1232C3.71205 12.146 3.15469 13.3476 3.03149 14.7889L3.03142 14.7898C2.85016 17.0012 3.26303 19.3322 4.36997 22.2961C6.16638 27.1499 8.87734 31.6652 12.9217 36.5399L12.9225 36.5408C17.826 42.3942 23.7282 47.0141 30.4503 50.2682L30.4514 50.2688C32.9034 51.4414 36.2013 52.8304 39.7616 53.0584ZM39.7616 53.0584L39.7782 52.8089L39.7623 53.0584C39.762 53.0584 39.7618 53.0584 39.7616 53.0584ZM44.0774 34.8633L44.0806 34.8666L50.5693 41.3789L50.5705 41.3801C51.7237 42.5219 52.3166 43.8667 52.3166 45.2565C52.3166 46.6359 51.7342 47.9943 50.6016 49.1726L50.6011 49.1732C50.0967 49.7011 49.5797 50.2064 49.0729 50.6896L49.0715 50.691C49.0157 50.7449 48.9601 50.7987 48.9046 50.8524C48.2226 51.5118 47.5626 52.1499 46.9842 52.8507L46.9661 52.8726L46.9654 52.874C46.9608 52.8789 46.9552 52.885 46.9496 52.8916C46.9439 52.8984 46.9375 52.9064 46.9309 52.9158C45.1858 54.8017 42.9656 55.7501 40.3101 55.7501C40.0812 55.7501 39.8278 55.7387 39.5795 55.7268C35.5763 55.4696 31.9845 53.9632 29.2726 52.678C22.1904 49.2544 15.99 44.3955 10.8356 38.2408C6.58382 33.1291 3.73974 28.3667 1.83667 23.2331L1.83667 23.2331C1.05953 21.1372 0.059726 17.9655 0.338503 14.5715C0.522577 12.491 1.35975 10.7023 2.83095 9.23107L2.83172 9.23029L6.84947 5.17709L6.85024 5.17631L6.86129 5.16527L6.87129 5.15527C8.01308 4.05991 9.34707 3.48926 10.7149 3.48926C12.0827 3.48926 13.3926 4.0599 14.4984 5.15437L14.4983 5.15448L14.5047 5.16038C15.267 5.86406 16.0071 6.61577 16.7153 7.3475C17.0722 7.72813 17.4522 8.10816 17.8171 8.47309L17.8187 8.47464L21.0453 11.7013C22.2475 12.9034 22.8336 14.2666 22.8336 15.6139C22.8336 16.9613 22.2475 18.3245 21.0453 19.5266C20.8792 19.6927 20.7132 19.8617 20.5481 20.0297L20.5474 20.0305C20.3818 20.199 20.2171 20.3667 20.0525 20.5312L20.0513 20.5324C19.9669 20.6179 19.8824 20.7037 19.7977 20.7897C19.0023 21.5968 18.1891 22.422 17.3185 23.2183L17.1848 23.3406L17.2594 23.5057C17.9911 25.125 18.9962 26.7144 20.4824 28.5929L20.4823 28.5929L20.4845 28.5956C23.5481 32.3598 26.7471 35.2746 30.2716 37.5132L30.2738 37.5145C30.6263 37.7334 31.0367 37.9386 31.4571 38.1488L31.4604 38.1504C31.4609 38.1506 31.4615 38.1509 31.462 38.1512C31.5642 38.2044 31.6665 38.2568 31.7689 38.3094C31.9672 38.4111 32.1662 38.5132 32.3673 38.6214L32.5308 38.7095L32.6623 38.5784L36.3971 34.8553L36.3974 34.8551C37.5522 33.7002 38.8858 33.1081 40.2628 33.1081C41.6506 33.1081 42.9709 33.7111 44.0774 34.8633L44.0774 34.8633ZM48.6692 47.303L48.4922 47.1324C48.5479 47.0744 48.601 47.0164 48.6515 46.9585C48.6631 46.9693 48.674 46.9817 48.6839 46.9957C48.7192 47.0453 48.7301 47.0983 48.7301 47.1401C48.7301 47.2161 48.6963 47.2683 48.6795 47.2904C48.6761 47.2948 48.6727 47.299 48.6692 47.303ZM15.1222 21.5656C15.1218 21.5658 15.1218 21.5659 15.1221 21.5656L15.1222 21.5656Z" fill="white" stroke="#1CAAE6" stroke-width="0.5"/>
<path d="M30.3052 13.0742L30.3052 13.0742L30.3038 13.074C29.5725 12.9554 29.0915 12.2518 29.2217 11.5208C29.3512 10.7936 30.0381 10.304 30.7784 10.4235C34.4731 11.0531 37.8415 12.8013 40.5116 15.4714C43.1817 18.1414 44.9298 21.5099 45.5594 25.2046C45.679 25.9451 45.19 26.6389 44.4584 26.7599C44.4508 26.7609 44.4434 26.7618 44.4361 26.7627C44.3506 26.7735 44.2907 26.781 44.2223 26.781C43.5722 26.781 43.0062 26.3218 42.8969 25.6662L42.8967 25.665C42.3561 22.5173 40.8779 19.6574 38.5958 17.3753C36.3142 15.0936 33.4542 13.6031 30.3052 13.0742Z" fill="white" stroke="#1CAAE6" stroke-width="0.5"/>
<path d="M55.6886 24.7448L55.6889 24.7466C55.8179 25.471 55.3216 26.1649 54.6006 26.2753C54.5925 26.2763 54.5846 26.2773 54.5769 26.2783C54.4913 26.289 54.4315 26.2966 54.3631 26.2966C53.713 26.2966 53.147 25.8373 53.0377 25.1817L53.0376 25.181C52.0951 19.6217 49.4703 14.5515 45.4391 10.5203L45.4388 10.52C41.4081 6.50124 36.3384 3.86449 30.779 2.92187C30.0401 2.79167 29.5523 2.10495 29.671 1.36636C29.8023 0.63537 30.4916 0.142034 31.2127 0.270453L31.2145 0.270769C37.3327 1.31391 42.8998 4.19687 47.3312 8.62818C51.7625 13.0595 54.6454 18.6266 55.6886 24.7448Z" fill="white" stroke="#1CAAE6" stroke-width="0.5"/>
</svg>
