<svg width="44" height="43" viewBox="0 0 44 43" fill="none" xmlns="http://www.w3.org/2000/svg">
<mask id="mask0" mask-type="alpha" maskUnits="userSpaceOnUse" x="0" y="0" width="44" height="43">
<rect x="0.666672" width="43" height="43" rx="1" fill="#2CB742"/>
</mask>
<g mask="url(#mask0)">
<path d="M48.1137 4.09491C47.6204 -0.527163 43.9701 -4.17834 39.3476 -4.67123C27.7556 -5.90842 16.1297 -5.90842 4.53816 -4.67123C-0.0843282 -4.17793 -3.7351 -0.527163 -4.2284 4.09491C-5.46558 15.6865 -5.46558 27.3128 -4.2284 38.9044C-3.7351 43.5268 -0.0843282 47.1776 4.53774 47.6709C16.1293 48.9081 27.7556 48.9081 39.3476 47.6709C43.9701 47.1776 47.6204 43.5268 48.1137 38.9044C49.3509 27.3128 49.3509 15.6869 48.1137 4.09491Z" fill="url(#paint0_radial)"/>
<path d="M45.1659 6.05532C44.7285 1.95384 41.4891 -1.28591 37.3872 -1.72381C27.1011 -2.82123 16.7843 -2.82123 6.49814 -1.72381C2.39666 -1.28591 -0.843088 1.95384 -1.28098 6.05532C-2.3784 16.3415 -2.3784 26.6582 -1.28098 36.944C-0.843088 41.0459 2.39666 44.2856 6.49814 44.7231C16.7843 45.8209 27.1011 45.8209 37.3868 44.7231C41.4887 44.2856 44.7285 41.0459 45.1659 36.944C46.2638 26.6582 46.2638 16.3415 45.1659 6.05532Z" fill="url(#paint1_linear)"/>
<path d="M-4.34418 37.7808C-4.30696 38.1554 -4.26851 38.53 -4.2284 38.9046C-3.7351 43.5267 -0.0843282 47.1775 4.53816 47.6708C16.1297 48.908 27.756 48.908 39.3476 47.6708C43.9701 47.1775 47.6204 43.5267 48.1137 38.9046C48.1539 38.53 48.1923 38.1554 48.2299 37.7808H-4.34418Z" fill="url(#paint2_linear)"/>
<path d="M48.1138 38.9046C48.7787 32.6761 49.0855 26.4376 49.0359 20.2L36.6475 7.81165C35.0998 6.04477 32.8392 4.94198 30.1829 4.84646C24.7202 4.64963 19.2401 4.65956 13.7766 4.84729C9.23884 5.00359 6.06566 8.05354 5.2519 12.5363C5.10842 13.3277 5.02241 14.1295 4.90952 14.9267V28.0685C4.97196 28.4944 5.06376 28.9182 5.09229 29.3466C5.27423 32.0732 6.39481 34.4086 8.18897 35.9886L20.7957 48.5949C26.9824 48.6383 33.1696 48.3307 39.3476 47.6711C43.9701 47.1778 47.6205 43.5271 48.1138 38.9046Z" fill="url(#paint3_linear)"/>
<path d="M48.1138 38.9049C47.6209 43.5266 43.9693 47.1782 39.3477 47.671C33.1704 48.3302 26.982 48.6382 20.7961 48.5948L8.20842 36.0071C9.66766 37.2844 11.5697 38.0622 13.777 38.1453C19.2393 38.3504 24.7206 38.345 30.1829 38.1482C35.1234 37.9696 38.6985 34.313 38.8527 29.3725C39.0173 24.1269 39.0173 18.8676 38.8527 13.622C38.7824 11.3428 37.9823 9.33736 36.6558 7.81982L49.0363 20.2003C49.0851 26.4371 48.7783 32.6764 48.1138 38.9049Z" fill="url(#paint4_linear)"/>
<path d="M28.3378 15.6306C26.7508 13.9025 24.4737 12.8184 21.9427 12.8184C17.1486 12.8184 13.2617 16.7052 13.2617 21.4993C13.2617 24.0303 14.3459 26.3075 16.0739 27.8945L36.1587 47.9793C37.2218 47.8867 38.2849 47.7837 39.3472 47.6704C43.9697 47.1771 47.6204 43.5263 48.1137 38.9038C48.227 37.8416 48.33 36.7785 48.4226 35.7154L28.3378 15.6306Z" fill="url(#paint5_linear)"/>
<path d="M48.9366 27.3377L32.7722 11.1737C32.3951 10.6787 31.8009 10.3574 31.1306 10.3574C29.9902 10.3574 29.0652 11.282 29.0652 12.4228C29.0652 13.0931 29.3865 13.6873 29.8814 14.0644L48.6476 32.831C48.775 31.0004 48.8713 29.1691 48.9366 27.3377Z" fill="url(#paint6_linear)"/>
<path d="M4.90952 14.9267C5.02241 14.1295 5.10842 13.3277 5.2519 12.5363C6.06525 8.05354 9.23884 5.00359 13.7766 4.84729C19.2401 4.65956 24.7202 4.64963 30.1829 4.84646C35.1217 5.02426 38.6985 8.68123 38.8527 13.6217C39.0168 18.8677 39.0168 24.1266 38.8527 29.3726C38.6985 34.3131 35.1229 37.9697 30.1833 38.1479C24.7206 38.3451 19.2393 38.3501 13.777 38.145C8.83733 37.9593 5.42267 34.2941 5.09229 29.3462C5.06376 28.9182 4.97196 28.4939 4.90952 28.068C4.90952 23.6875 4.90952 19.3069 4.90952 14.9267ZM21.9473 35.2199C24.4473 35.2199 26.9498 35.2947 29.4465 35.2025C33.361 35.0574 35.7688 32.7211 35.8602 28.8103C35.9735 23.9372 35.9735 19.0575 35.8602 14.1841C35.7688 10.274 33.3594 7.88318 29.4465 7.80007C24.4799 7.69504 19.508 7.69587 14.5415 7.80007C10.6584 7.88153 8.24355 10.224 8.13811 14.091C8.00414 19.0257 8.00414 23.969 8.13811 28.9037C8.24355 32.7703 10.6584 35.0586 14.5419 35.2025C17.0072 35.2943 19.4787 35.2199 21.9473 35.2199Z" fill="url(#paint7_linear)"/>
<path d="M4.90952 14.9267C5.02241 14.1295 5.10842 13.3277 5.2519 12.5363C6.06525 8.05354 9.23884 5.00359 13.7766 4.84729C19.2401 4.65956 24.7202 4.64963 30.1829 4.84646C35.1217 5.02426 38.6985 8.68123 38.8527 13.6217C39.0168 18.8677 39.0168 24.1266 38.8527 29.3726C38.6985 34.3131 35.1229 37.9697 30.1833 38.1479C24.7206 38.3451 19.2393 38.3501 13.777 38.145C8.83733 37.9593 5.42267 34.2941 5.09229 29.3462C5.06376 28.9182 4.97196 28.4939 4.90952 28.068C4.90952 23.6875 4.90952 19.3069 4.90952 14.9267ZM21.9473 35.2199C24.4473 35.2199 26.9498 35.2947 29.4465 35.2025C33.361 35.0574 35.7688 32.7211 35.8602 28.8103C35.9735 23.9372 35.9735 19.0575 35.8602 14.1841C35.7688 10.274 33.3594 7.88318 29.4465 7.80007C24.4799 7.69504 19.508 7.69587 14.5415 7.80007C10.6584 7.88153 8.24355 10.224 8.13811 14.091C8.00414 19.0257 8.00414 23.969 8.13811 28.9037C8.24355 32.7703 10.6584 35.0586 14.5419 35.2025C17.0072 35.2943 19.4787 35.2199 21.9473 35.2199Z" fill="white"/>
<path d="M21.9427 12.8193C17.1486 12.8193 13.2617 16.7058 13.2617 21.4999C13.2617 26.2944 17.1486 30.1808 21.9427 30.1808C26.7372 30.1808 30.6236 26.2944 30.6236 21.4999C30.6236 16.7058 26.7372 12.8193 21.9427 12.8193ZM21.9427 27.1921C18.7989 27.1921 16.2505 24.6437 16.2505 21.4999C16.2505 18.3561 18.7989 15.8077 21.9427 15.8077C25.0865 15.8077 27.6349 18.3561 27.6349 21.4999C27.6349 24.6437 25.0865 27.1921 21.9427 27.1921Z" fill="white"/>
<path d="M33.1956 12.4228C33.1956 13.5633 32.2711 14.4878 31.1306 14.4878C29.9902 14.4878 29.0652 13.5633 29.0652 12.4228C29.0652 11.282 29.9902 10.3574 31.1306 10.3574C32.2711 10.3574 33.1956 11.282 33.1956 12.4228Z" fill="white"/>
</g>
<defs>
<radialGradient id="paint0_radial" cx="0" cy="0" r="1" gradientUnits="userSpaceOnUse" gradientTransform="translate(5.95398 41.7656) scale(59.7708)">
<stop stop-color="#FAE100"/>
<stop offset="0.0544" stop-color="#FADC04"/>
<stop offset="0.1167" stop-color="#FBCE0E"/>
<stop offset="0.1829" stop-color="#FCB720"/>
<stop offset="0.2514" stop-color="#FE9838"/>
<stop offset="0.3054" stop-color="#FF7950"/>
<stop offset="0.4922" stop-color="#FF1C74"/>
<stop offset="1" stop-color="#6C1CD1"/>
</radialGradient>
<linearGradient id="paint1_linear" x1="15.6308" y1="17.9494" x2="-76.1869" y2="-33.698" gradientUnits="userSpaceOnUse">
<stop stop-color="#A1B5D8" stop-opacity="0"/>
<stop offset="0.3094" stop-color="#90A2BD" stop-opacity="0.309804"/>
<stop offset="0.7554" stop-color="#7C8B9C" stop-opacity="0.756863"/>
<stop offset="1" stop-color="#748290"/>
</linearGradient>
<linearGradient id="paint2_linear" x1="21.9427" y1="42.2438" x2="21.9427" y2="50.6919" gradientUnits="userSpaceOnUse">
<stop stop-color="#FAE100" stop-opacity="0"/>
<stop offset="0.3068" stop-color="#FCA800" stop-opacity="0.305882"/>
<stop offset="0.6275" stop-color="#FE7300" stop-opacity="0.627451"/>
<stop offset="0.8685" stop-color="#FF5200" stop-opacity="0.866667"/>
<stop offset="1" stop-color="#FF4500"/>
</linearGradient>
<linearGradient id="paint3_linear" x1="18.8594" y1="18.3401" x2="5.4463" y2="4.92695" gradientUnits="userSpaceOnUse">
<stop stop-color="#833AB4" stop-opacity="0"/>
<stop offset="1" stop-color="#833AB4"/>
</linearGradient>
<linearGradient id="paint4_linear" x1="31.9884" y1="43.9717" x2="25.2936" y2="12.411" gradientUnits="userSpaceOnUse">
<stop stop-color="#833AB4" stop-opacity="0"/>
<stop offset="1" stop-color="#833AB4"/>
</linearGradient>
<linearGradient id="paint5_linear" x1="34.5357" y1="34.0924" x2="7.64596" y2="7.2026" gradientUnits="userSpaceOnUse">
<stop stop-color="#833AB4" stop-opacity="0"/>
<stop offset="1" stop-color="#833AB4"/>
</linearGradient>
<linearGradient id="paint6_linear" x1="36.5303" y1="17.8224" x2="27.6383" y2="8.93051" gradientUnits="userSpaceOnUse">
<stop stop-color="#833AB4" stop-opacity="0"/>
<stop offset="1" stop-color="#833AB4"/>
</linearGradient>
<linearGradient id="paint7_linear" x1="32.7038" y1="10.8139" x2="10.7795" y2="32.7382" gradientUnits="userSpaceOnUse">
<stop stop-color="#833AB4"/>
<stop offset="0.0922" stop-color="#9C3495"/>
<stop offset="0.2927" stop-color="#DC2546"/>
<stop offset="0.392" stop-color="#FD1D1D"/>
<stop offset="0.5589" stop-color="#FC6831"/>
<stop offset="0.6887" stop-color="#FC9B40"/>
<stop offset="0.7521" stop-color="#FCAF45"/>
<stop offset="0.7806" stop-color="#FDB750"/>
<stop offset="0.8656" stop-color="#FECB6A"/>
<stop offset="0.9415" stop-color="#FFD87A"/>
<stop offset="1" stop-color="#FFDC80"/>
</linearGradient>
</defs>
</svg>
