<svg width="44" height="43" viewBox="0 0 44 43" fill="none" xmlns="http://www.w3.org/2000/svg">
<rect x="0.333328" width="43" height="43" rx="1" fill="#2CB742"/>
<g clip-path="url(#clip0)">
<path d="M31.7843 11.9652C29.1755 9.45001 25.705 8.06394 22.0114 8.0625C18.326 8.0625 14.85 9.44734 12.224 11.962C9.5934 14.4809 8.14333 17.8283 8.13994 21.3755V21.3796V21.3821C8.14036 23.5291 8.72323 25.6949 9.82964 27.6719L8.17786 34.9375L15.7721 33.2658C17.6955 34.2039 19.8416 34.6984 22.0061 34.6992H22.0116C25.6963 34.6992 29.1723 33.3142 31.7987 30.7994C34.4317 28.2784 35.8824 24.9352 35.8841 21.3858C35.8851 17.8614 34.4293 14.5157 31.7843 11.9652ZM22.0114 32.6017H22.0065C20.063 32.6009 18.1372 32.1287 16.4378 31.2357L16.0787 31.0471L11.0288 32.1586L12.1257 27.3344L11.9143 26.9815C10.863 25.227 10.3074 23.2902 10.3074 21.3798C10.3114 15.1965 15.5613 10.1601 22.0109 10.1601C25.1268 10.1613 28.0545 11.3302 30.2546 13.4512C32.4879 15.6049 33.7174 18.4226 33.7164 21.3852C33.7138 27.57 28.463 32.6017 22.0114 32.6017Z" fill="white"/>
<path d="M18.2369 15.5088H17.6288C17.4171 15.5088 17.0735 15.5855 16.7828 15.8916C16.4919 16.1979 15.6721 16.9383 15.6721 18.4441C15.6721 19.95 16.8093 21.4049 16.9677 21.6093C17.1264 21.8136 19.1628 25.0023 22.3879 26.2291C25.0683 27.2486 25.6139 27.0458 26.1955 26.9947C26.7773 26.9439 28.0729 26.2545 28.3374 25.54C28.6018 24.8254 28.6018 24.2127 28.5225 24.0848C28.4431 23.9573 28.2314 23.8808 27.9142 23.7278C27.5969 23.5747 26.0417 22.8217 25.7508 22.7194C25.4599 22.6175 25.2484 22.5665 25.0368 22.873C24.8251 23.1789 24.202 23.8867 24.0168 24.0909C23.8318 24.2954 23.6467 24.321 23.3293 24.1678C23.0119 24.0143 22.0004 23.6854 20.7883 22.643C19.8448 21.8316 19.1901 20.797 19.0049 20.4906C18.8199 20.1845 18.9852 20.0188 19.1443 19.8661C19.2869 19.7291 19.4795 19.5417 19.6382 19.3631C19.7967 19.1843 19.8418 19.0568 19.9478 18.8526C20.0535 18.6484 20.0005 18.4696 19.9213 18.3166C19.8418 18.1634 19.2329 16.65 18.9507 16.0448H18.9509C18.7132 15.535 18.4629 15.5178 18.2369 15.5088Z" fill="white"/>
</g>
<defs>
<clipPath id="clip0">
<rect width="27.7708" height="26.875" fill="white" transform="translate(8.13994 8.0625)"/>
</clipPath>
</defs>
</svg>
